<svg width="60" height="53" viewBox="0 0 60 53" fill="none" xmlns="http://www.w3.org/2000/svg">
<g clip-path="url(#clip0_12075_725)">
<path d="M58.8195 8.0065C58.3884 7.5218 57.7635 7.24302 57.1049 7.24302H50.6592V1.94618C50.6592 0.873302 49.7635 0 48.663 0H11.0862C9.98571 0 9.08997 0.873302 9.08997 1.94618V7.22506H2.64429C1.98575 7.22506 1.36079 7.50279 0.929704 7.98854C0.49862 8.47324 0.304741 9.11528 0.39789 9.75099C0.695749 11.7785 1.43769 15.692 3.06888 19.125C4.00578 21.0976 5.12032 22.6625 6.38107 23.7766C7.91261 25.1304 9.66619 25.8337 11.5952 25.8727C14.1482 30.4716 18.4882 34.0493 23.8454 35.628V44.2026L17.6456 50.2492C17.4528 50.4308 17.3174 50.6515 17.2394 50.8891H13.6369C13.039 50.8891 12.5538 51.3622 12.5538 51.9451C12.5538 52.528 13.039 53.0011 13.6369 53.0011H46.1166C46.7145 53.0011 47.1997 52.528 47.1997 51.9451C47.1997 51.3622 46.7145 50.8891 46.1166 50.8891H42.5141C42.4372 50.6515 42.3008 50.4318 42.108 50.2492L35.9082 44.2026V35.628C41.2577 34.0514 45.5935 30.4811 48.1475 25.8918C50.0798 25.8548 51.8377 25.1515 53.3714 23.7946C54.6321 22.6805 55.7467 21.1155 56.6836 19.1429C58.3148 15.7099 59.0567 11.7964 59.3546 9.76894C59.4477 9.13323 59.2538 8.49119 58.8228 8.0065H58.8195ZM2.54248 9.45109C2.54031 9.43947 2.53598 9.40568 2.56631 9.37083C2.59663 9.33598 2.63238 9.33598 2.64429 9.33598H9.08997V16.2305C9.08997 18.8209 9.59579 21.3193 10.524 23.6267C4.88528 22.3595 3.00281 12.5884 2.54248 9.45109ZM34.6821 33.9891L33.9553 34.176V44.9893L40.0045 50.888H19.7447L25.7939 44.9893V34.176L25.0672 33.9891C16.8083 31.8697 11.0407 24.5675 11.0407 16.2305V1.94618C11.0407 1.9219 11.0613 1.90078 11.0873 1.90078H48.6641C48.6901 1.90078 48.7107 1.92084 48.7107 1.94618V16.2316C48.7107 24.5675 42.9431 31.8708 34.6842 33.9901L34.6821 33.9891ZM57.2067 9.47009C56.9262 11.3825 56.2298 15.0668 54.7145 18.2549C53.2425 21.3542 51.3968 23.162 49.2154 23.6478C50.1491 21.3352 50.6582 18.8283 50.6582 16.2305V9.35499H57.1038C57.1157 9.35499 57.1515 9.35499 57.1818 9.38984C57.2121 9.42469 57.2078 9.45848 57.2056 9.47009H57.2067Z" fill="#005D98"/>
<path d="M25.5631 31.0365C21.4125 30.0333 18.3126 27.6394 16.3468 23.9191C14.8531 21.0912 14.6051 18.5146 14.6018 18.4893C14.5553 17.9676 14.0852 17.5811 13.548 17.6244C13.0118 17.6688 12.6143 18.1292 12.6598 18.6519C12.6695 18.7691 12.9306 21.5706 14.578 24.7217C16.1117 27.6552 19.1813 31.4526 25.0941 32.8813C25.1731 32.9003 25.2522 32.9098 25.3291 32.9098C25.7667 32.9098 26.1642 32.6205 26.2747 32.1875C26.4047 31.6785 26.0851 31.1622 25.5631 31.0365Z" fill="#005D98"/>
</g>
<defs>
<clipPath id="clip0_12075_725">
<rect width="59" height="53" fill="white" transform="translate(0.375)"/>
</clipPath>
</defs>
</svg>
