<svg width="78" height="44" viewBox="0 0 78 44" fill="none" xmlns="http://www.w3.org/2000/svg">
<g clip-path="url(#clip0_2456_41817)">
<path d="M61.1019 11.7458V2.05467C61.1019 1.23838 60.6401 0.523149 59.8957 0.186635C59.1491 -0.150989 58.3012 -0.0243799 57.6825 0.516485C52.2391 5.29098 45.4749 6.96022 40.7592 7.51886C36.4107 8.03418 32.949 7.72987 31.9431 7.6177C31.3434 6.72033 30.3197 6.12727 29.1591 6.12727H9.36722C7.52234 6.12727 6.0224 7.62548 6.0224 9.46575V12.4844C2.69204 12.9964 0.125 15.8873 0.125 19.3446C0.125 22.8019 2.69204 25.6917 6.0224 26.2037V29.2223C6.0224 31.0637 7.52345 32.5608 9.36722 32.5608H14.2476C14.3633 35.2785 14.952 37.7218 16.0057 39.8331C16.9815 41.7877 18.1132 42.9505 18.7007 43.4703C19.0879 43.8124 19.5875 44.0012 20.1083 44.0012H24.8518C25.6641 44.0012 26.394 43.5503 26.7579 42.825C27.1195 42.1042 27.045 41.258 26.562 40.6138C24.3778 37.6996 23.8359 34.2223 23.7024 32.5619H29.1591C30.3186 32.5619 31.3423 31.9689 31.9431 31.0715C32.9501 30.9593 36.4118 30.6539 40.7592 31.1703C45.4749 31.7301 52.2391 33.3982 57.6825 38.1727C58.0708 38.5137 58.5504 38.6891 59.0389 38.6891C59.3271 38.6891 59.6175 38.6281 59.8957 38.5026C60.639 38.166 61.1019 37.4508 61.1019 36.6345V26.9434C64.1251 25.6462 66.1091 22.6797 66.1091 19.3446C66.1091 16.0094 64.1251 13.043 61.1019 11.7458ZM6.0224 24.1724C3.8003 23.686 2.12789 21.6991 2.12789 19.3446C2.12789 16.9901 3.8003 15.0032 6.0224 14.5168V24.1724ZM24.9597 41.8099C24.9731 41.8277 25.0009 41.8644 24.9686 41.9277C24.9319 41.9999 24.8729 41.9999 24.8529 41.9999H20.1094C20.0782 41.9999 20.0504 41.9899 20.0304 41.9721C19.1858 41.2258 16.5287 38.4204 16.2527 32.5597H21.6917C21.8163 34.4011 22.3916 38.3815 24.9608 41.8088L24.9597 41.8099ZM30.5022 29.2223C30.5022 29.9609 29.9002 30.5617 29.1602 30.5617H9.36722C8.62727 30.5617 8.02529 29.9609 8.02529 29.2223V9.46686C8.02529 8.72831 8.62727 8.12747 9.36722 8.12747H29.1602C29.9002 8.12747 30.5022 8.72831 30.5022 9.46686V29.2223ZM59.099 11.0528V36.6345C59.099 36.6556 59.099 36.6678 59.0701 36.6812C59.0356 36.6967 59.0211 36.6834 59.0055 36.6701C53.1582 31.5413 45.9522 29.7643 40.9372 29.1768C38.9989 28.9502 37.2419 28.8758 35.7776 28.8758C34.3956 28.8758 33.2728 28.9413 32.5051 29.0058V9.68232C34.0873 9.81559 37.1696 9.95331 40.9372 9.51129C50.0248 8.44621 55.7786 4.84896 59.0055 2.01802C59.0211 2.0047 59.0356 1.99137 59.0701 2.00692C59.099 2.02025 59.099 2.03135 59.099 2.05356V11.0517V11.0528ZM61.1019 24.6988V13.9893C62.9423 15.1099 64.1062 17.1189 64.1062 19.3446C64.1062 21.5702 62.9423 23.5782 61.1019 24.6999V24.6988Z" fill="#005D98"/>
<path d="M76.12 18.3452H69.1655C68.6125 18.3452 68.1641 18.7928 68.1641 19.3448C68.1641 19.8967 68.6125 20.3443 69.1655 20.3443H76.12C76.673 20.3443 77.1214 19.8967 77.1214 19.3448C77.1214 18.7928 76.673 18.3452 76.12 18.3452Z" fill="#005D98"/>
<path d="M68.9868 15.6953C69.1125 15.6953 69.2405 15.672 69.364 15.6209L76.0036 12.9232C76.5155 12.7144 76.7625 12.1314 76.5533 11.6205C76.3441 11.1096 75.7599 10.8631 75.2481 11.0718L68.6085 13.7695C68.0966 13.9783 67.8496 14.5614 68.0588 15.0723C68.2168 15.4599 68.5918 15.6953 68.9868 15.6953Z" fill="#005D98"/>
<path d="M76.0031 25.7651L69.3636 23.0675C68.8517 22.8598 68.2675 23.1052 68.0583 23.6161C67.8503 24.127 68.0962 24.7101 68.608 24.9189L75.2476 27.6165C75.3711 27.6665 75.4991 27.6909 75.6248 27.6909C76.0198 27.6909 76.3948 27.4555 76.5528 27.0679C76.7609 26.557 76.515 25.9739 76.0031 25.7651Z" fill="#005D98"/>
</g>
<defs>
<clipPath id="clip0_2456_41817">
<rect width="77" height="44" fill="white" transform="translate(0.125)"/>
</clipPath>
</defs>
</svg>
