<svg width="54" height="53" viewBox="0 0 54 53" fill="none" xmlns="http://www.w3.org/2000/svg">
<g clip-path="url(#clip0_12075_9664)">
<path d="M27.125 53C20.0464 53 13.3919 50.244 8.38643 45.2386C3.381 40.2331 0.625 33.5786 0.625 26.5C0.625 19.4214 3.381 12.7669 8.38643 7.76143C13.3919 2.756 20.0464 0 27.125 0C34.2036 0 40.8581 2.756 45.8636 7.76143C50.869 12.7669 53.625 19.4214 53.625 26.5C53.625 33.5786 50.869 40.2331 45.8636 45.2386C40.8581 50.244 34.2036 53 27.125 53ZM27.125 2.00842C20.5831 2.00842 14.4329 4.55577 9.80683 9.18183C5.18077 13.8079 2.63342 19.9581 2.63342 26.5C2.63342 33.0419 5.18077 39.1921 9.80683 43.8182C14.4329 48.4442 20.5831 50.9916 27.125 50.9916C33.6669 50.9916 39.8171 48.4442 44.4432 43.8182C49.0692 39.1921 51.6166 33.0419 51.6166 26.5C51.6166 19.9581 49.0692 13.8079 44.4432 9.18183C39.8171 4.55577 33.6669 2.00842 27.125 2.00842Z" fill="#005D98"/>
<path d="M19.6281 36.1851C19.974 36.4049 20.3656 36.5153 20.7595 36.5153C21.0652 36.5153 21.3732 36.4484 21.6611 36.3123L38.4492 28.4114C39.1979 28.0588 39.6632 27.3268 39.6632 26.4989C39.6632 25.671 39.1979 24.939 38.4492 24.5876L21.6611 16.6867C21.0028 16.3765 20.2429 16.4244 19.6292 16.815C19.0155 17.2044 18.6484 17.8716 18.6484 18.5991V34.3998C18.6484 35.1273 19.0155 35.7945 19.6292 36.184L19.6281 36.1851ZM20.6557 18.6002C20.6557 18.5846 20.6557 18.5422 20.7048 18.5121C20.726 18.4987 20.745 18.4942 20.7606 18.4942C20.7818 18.4942 20.7974 18.502 20.8053 18.5054L37.5934 26.4063C37.6146 26.4163 37.6537 26.4342 37.6537 26.5011C37.6537 26.5681 37.6146 26.5859 37.5934 26.596L20.8053 34.4969C20.7908 34.5036 20.7528 34.5214 20.7048 34.4902C20.6557 34.4589 20.6557 34.4177 20.6557 34.402V18.6013V18.6002Z" fill="#005D98"/>
</g>
<defs>
<clipPath id="clip0_12075_9664">
<rect width="53" height="53" fill="white" transform="translate(0.625)"/>
</clipPath>
</defs>
</svg>
