<svg width="103" height="93" viewBox="0 0 103 93" fill="none" xmlns="http://www.w3.org/2000/svg">
<g clip-path="url(#clip0_2776_30519)">
<path d="M61.4498 12.4101C60.6106 11.8958 59.51 12.1537 58.9947 12.9926L50.8755 26.1401L46.5233 23.0831C45.7191 22.5172 44.6033 22.7099 44.0363 23.5139C43.4693 24.318 43.6623 25.4301 44.468 25.996L51.9214 31.2331L62.032 14.8633C62.5489 14.0258 62.2889 12.9289 61.4498 12.4116V12.4101Z" fill="#005D98"/>
<path d="M39.3034 35.8937C40.5332 36.0136 41.5016 36.0576 41.9728 36.0728C42.1324 36.0288 42.2996 35.9833 42.479 35.9362L42.9852 35.8012C43.5675 35.6434 44.1907 35.4553 44.8368 35.252C36.1643 24.8233 33.1346 13.067 32.2909 8.91617C35.0044 7.53558 41.7235 4.75165 51.7383 4.75165C61.7532 4.75165 68.4693 7.53558 71.1858 8.91617C70.4212 12.668 67.8734 22.6356 60.984 32.2193C61.8687 32.3998 62.7747 32.6562 63.7324 32.9991C64.3815 33.2312 65.0778 33.433 65.8059 33.5999C73.2213 22.6401 75.5532 11.6106 76.0488 8.81907C76.3042 7.3869 75.6277 5.94563 74.3705 5.23258C72.2043 4.0037 64.1763 0 51.7383 0C39.3004 0 31.2708 4.0037 29.1122 5.22954C27.8505 5.94108 27.174 7.38235 27.4279 8.81452C27.9569 11.8033 30.5913 24.221 39.3034 35.8937Z" fill="#005D98"/>
<path d="M102.364 54.7654C102.103 54.4392 101.712 54.2526 101.294 54.2526C100.984 54.2526 100.68 54.3588 100.438 54.553L94.6554 59.1696L76.6932 32.0979L82.1627 27.583C82.7449 27.102 82.827 26.2388 82.3451 25.6577C82.0837 25.3422 81.6991 25.1616 81.2886 25.1616C80.9709 25.1616 80.6608 25.2724 80.4145 25.4757L73.9964 30.7735C73.4537 31.2195 73.3382 31.9978 73.7273 32.5819L75.6412 35.466C74.2411 35.736 72.7347 35.8726 71.1583 35.8726C68.3201 35.8726 65.4804 35.4159 63.1637 34.5845C61.2559 33.9003 59.5792 33.5817 57.8872 33.5817C55.4884 33.5817 53.2446 34.2492 50.7698 35.0548C50.0599 35.2854 49.2953 35.5449 48.5565 35.7952C46.8037 36.3899 44.9901 37.0043 43.4274 37.4276L42.9227 37.5626C42.6552 37.6339 42.4135 37.7007 42.1839 37.7644C41.0757 37.7417 32.9398 37.4746 28.3063 34.5329L29.6 32.5819C29.9876 31.9978 29.8721 31.2195 29.3309 30.7735L22.9128 25.4757C22.668 25.2739 22.3579 25.1616 22.0402 25.1616C21.6298 25.1616 21.2452 25.3422 20.9837 25.6577C20.7496 25.9384 20.6401 26.2949 20.6751 26.659C20.7101 27.0231 20.8834 27.3508 21.1661 27.5845L26.6357 32.0995L8.67341 59.1711L2.89071 54.5545C2.649 54.3618 2.34497 54.2541 2.03485 54.2541C1.61529 54.2541 1.22612 54.4407 0.964656 54.7669C0.736632 55.0521 0.63174 55.4101 0.672785 55.7727C0.713829 56.1353 0.893209 56.4615 1.179 56.6891L8.13223 62.2403C8.37394 62.4344 8.67797 62.5406 8.98808 62.5406C9.06105 62.5406 9.1325 62.5346 9.20091 62.524C9.58095 62.4648 9.91995 62.2478 10.1312 61.9277L11.0525 60.5396C12.9816 63.5571 15.0672 65.7266 16.2606 66.8523L15.1554 68.2754C14.2083 69.5012 13.7979 71.0214 13.9985 72.5567C14.1992 74.0905 14.9882 75.456 16.218 76.3996C17.124 77.0945 18.2033 77.5041 19.3434 77.586C19.4696 77.5951 19.5943 77.5997 19.7128 77.5997C19.5228 78.3218 19.4727 79.0834 19.57 79.8253C19.7706 81.3591 20.5581 82.7245 21.7879 83.6682C22.6939 84.3645 23.7747 84.7742 24.9118 84.8546C25.0471 84.8637 25.187 84.8697 25.3283 84.8697C25.9334 84.8697 26.5338 84.7742 27.116 84.5845C27.116 84.5921 27.1176 84.5997 27.1191 84.6073C27.3197 86.1411 28.1072 87.5065 29.337 88.4502C30.243 89.145 31.3239 89.5562 32.4609 89.6366C32.6054 89.6472 32.7407 89.6517 32.8759 89.6517C33.9416 89.6517 34.9707 89.3635 35.8752 88.8173C36.1975 89.8459 36.8132 90.7426 37.6721 91.4268C38.5386 92.1171 39.5814 92.5237 40.6835 92.6026C40.8112 92.6117 40.9419 92.6162 41.0742 92.6162C42.7418 92.6162 44.3015 91.8637 45.3519 90.5529L47.1473 88.2029C47.1853 88.2317 47.2673 88.2939 47.2673 88.2939C48.5078 89.236 50.0508 90.4088 51.7199 91.3433C53.7113 92.4569 55.458 93 57.0587 93H57.0603C58.9498 93 60.6129 92.2233 62.0053 90.6925C62.6864 89.943 63.0831 88.9341 63.1212 87.8797C63.5848 87.9738 64.0606 87.9829 64.5471 87.9829H64.7948C67.0112 87.9829 68.9327 87.0119 70.0683 85.3173C70.8466 84.1552 71.2023 82.8292 71.1096 81.4577C71.8074 81.7126 72.5082 81.8416 73.1968 81.8416C75.3296 81.8416 77.3012 80.7963 78.4718 79.0455C79.5161 77.4844 79.8232 75.6031 79.3367 73.8266C81.4072 73.7735 83.312 72.7251 84.4567 70.9986C85.6728 69.1659 85.84 66.8326 84.9157 64.8436C86.5104 64.1412 89.3212 62.6893 92.0636 60.221L93.1946 61.9262C93.4059 62.2463 93.7449 62.4648 94.1234 62.5224C94.1933 62.5331 94.2648 62.5391 94.3377 62.5391C94.6478 62.5391 94.9519 62.4329 95.1936 62.2387L102.147 56.6876C102.433 56.46 102.612 56.1338 102.653 55.7712C102.694 55.4086 102.589 55.0506 102.361 54.7654H102.364ZM60.8105 59.9357C60.3499 59.9357 59.9227 60.1648 59.6673 60.5487C59.4652 60.8536 59.3937 61.2177 59.4667 61.5757C59.5396 61.9338 59.7479 62.2418 60.0519 62.4435L64.6048 65.4566C64.6139 65.4642 64.6246 65.4717 64.6337 65.4763L74.7626 72.1759L75.2338 72.4869C76.8954 73.6445 77.3164 75.8656 76.1946 77.5435C75.5257 78.5433 74.4053 79.1411 73.1983 79.1411C72.4899 79.1411 71.7998 78.9317 71.2069 78.5372L61.5447 72.1016L57.4996 69.4026C57.2731 69.2509 57.0101 69.172 56.7395 69.172C56.2804 69.172 55.8548 69.3996 55.5994 69.7804C55.1798 70.407 55.3485 71.2581 55.9764 71.6768L56.3701 71.9408C56.3838 71.9514 56.3959 71.962 56.4096 71.9696L59.8589 74.2665L66.8121 78.9059C67.6056 79.4597 68.1453 80.2683 68.3277 81.1831C68.5117 82.0979 68.3216 83.0371 67.7941 83.8244C67.1648 84.7635 66.0733 85.3021 64.7994 85.3021H64.7857C63.9344 85.3021 63.3036 85.1459 62.8019 84.8106L62.7943 84.806C62.7761 84.7954 60.9032 83.6287 60.8211 83.5772L52.1288 77.8136C51.9069 77.6664 51.6485 77.5875 51.3824 77.5875C50.969 77.5875 50.5813 77.7711 50.3183 78.0897L50.3122 78.0973C50.2894 78.1246 50.259 78.161 50.2317 78.202C50.18 78.2793 50.1359 78.3628 50.1009 78.4493C50.0736 78.5145 50.0584 78.5767 50.0462 78.6252L50.0432 78.6343C50.0371 78.651 50.031 78.6708 50.0264 78.6935V78.6981L50.0219 78.7193C50.0173 78.7481 50.0158 78.7739 50.0143 78.7982C50.0143 78.8012 50.0143 78.8058 50.0143 78.8118C49.9778 79.1517 50.0599 79.4764 50.2606 79.7798C50.332 79.8875 50.5281 80.0544 50.8413 80.2789L50.8443 80.2819L59.3223 85.909C59.7692 86.2261 60.2876 86.9376 60.3742 87.6355C60.432 88.1043 60.3058 88.4911 59.979 88.8507C59.1246 89.7898 58.1517 90.248 57.004 90.248C54.5733 90.248 51.6819 88.2059 48.9304 86.1138C48.8894 86.0834 48.8498 86.0531 48.8118 86.0228C49.5567 84.9456 49.8851 83.6469 49.7391 82.3377C49.5765 80.8933 48.8605 79.5977 47.7234 78.692C46.8554 78.0002 45.7882 77.589 44.6846 77.5147C44.9506 76.6985 45.0327 75.8307 44.9217 74.9796C44.7211 73.4458 43.9336 72.0804 42.7038 71.1367C41.6792 70.3508 40.4555 69.9351 39.1649 69.9351C39.098 69.9351 39.0311 69.9351 38.9642 69.9382C39.0691 69.3556 39.0828 68.7609 39.0053 68.1662C38.8046 66.6308 38.0171 65.2669 36.7873 64.3233C35.7627 63.5374 34.539 63.1217 33.2484 63.1217C32.0353 63.1217 30.8511 63.504 29.8706 64.2064C29.5164 63.0747 28.8171 62.0688 27.8731 61.3436C26.8485 60.5578 25.6248 60.1421 24.3341 60.1421C22.5145 60.1421 20.8378 60.9643 19.7311 62.398L17.9631 64.6737C16.7181 63.4737 14.5747 61.1692 12.7368 58.0135L26.8044 36.8117C29.9192 38.8006 34.1574 39.7154 37.3939 40.1357C36.2811 41.1506 35.3493 42.6177 34.4463 44.0377L34.4372 44.0514C34.1438 44.5126 33.8413 44.989 33.5403 45.435C33.0386 46.1784 32.6905 46.632 32.2846 47.1585L32.277 47.1676C31.7814 47.8108 31.2205 48.5391 30.2293 49.9879C30.0226 50.2898 29.9451 50.6676 30.015 51.0241C30.1123 51.5278 30.3282 51.81 31.4896 52.5837C32.2451 53.0859 33.0584 53.5198 33.9097 53.8702C35.1972 54.4012 36.4635 54.6698 37.6766 54.6698C37.815 54.6698 37.9548 54.6667 38.0932 54.6592C39.8064 54.5712 41.5059 53.9446 43.2876 52.7445C44.4018 51.9936 45.4857 51.0954 46.8037 49.8317C47.0393 49.6041 47.2521 49.3689 47.4574 49.1398L47.465 49.1307C47.8769 48.671 48.2661 48.2371 48.6553 48.1097C48.7586 48.0763 48.8878 48.0596 49.052 48.0596C49.277 48.0596 49.5339 48.09 49.8075 48.1234H49.8121C49.9808 48.1446 50.1602 48.1658 50.3442 48.181C51.1316 48.2493 51.916 48.2842 52.6761 48.2842C53.3511 48.2842 54.0184 48.2569 54.6599 48.2038C54.9381 48.181 55.2649 48.1689 55.6039 48.1689C56.4826 48.1689 57.0694 48.2478 57.2366 48.3085C57.9176 48.8304 62.2106 51.7281 72.0552 58.3473L72.2969 58.5096C76.5199 61.3497 80.5103 64.0335 81.0317 64.4037C81.05 64.4204 81.0697 64.4355 81.0819 64.4462C81.1153 64.4735 81.1473 64.4947 81.1777 64.5144C81.9788 65.0439 82.5245 65.8541 82.7145 66.7932C82.9061 67.7338 82.7191 68.6911 82.1871 69.4891C81.5197 70.4949 80.3963 71.0957 79.1847 71.0957C78.4794 71.0957 77.7938 70.8894 77.2024 70.498L61.5797 60.1618C61.3547 60.0131 61.0933 59.9342 60.8227 59.9342L60.8105 59.9357ZM40.8796 89.8748C40.3308 89.8353 39.814 89.6335 39.3823 89.2891C38.8168 88.8386 38.4595 88.1953 38.3805 87.4777C38.2999 86.7601 38.5097 86.0486 38.9733 85.472L39.5708 84.6892L42.377 81.0542C42.8923 80.5292 43.5794 80.241 44.3152 80.241C44.9354 80.241 45.5207 80.4458 46.0071 80.8342C46.5726 81.2848 46.9284 81.928 47.0089 82.6472C47.0895 83.3632 46.8797 84.0763 46.4176 84.6543L43.1964 88.8704C42.6795 89.5137 41.9042 89.8839 41.0696 89.8839C41.0073 89.8839 40.9435 89.8823 40.8827 89.8778L40.8796 89.8748ZM32.8896 86.9179C32.8136 86.9179 32.7346 86.9148 32.6555 86.9088C32.0566 86.8663 31.4865 86.6493 31.0061 86.2822C30.357 85.7831 29.9405 85.0624 29.8356 84.2538C29.7292 83.4452 29.9466 82.6426 30.4452 81.9948L34.7382 76.433L36.8664 73.6961C37.4562 73.0346 38.268 72.672 39.1542 72.672C39.8353 72.672 40.4813 72.892 41.024 73.3077C41.6731 73.8053 42.0882 74.526 42.1946 75.3361C42.301 76.1447 42.0836 76.9473 41.585 77.5951L40.2351 79.3428C40.2183 79.361 40.2016 79.3793 40.1849 79.3975L40.1819 79.4005C40.1363 79.449 40.0846 79.5052 40.0329 79.5689L37.4258 82.9824L35.3097 85.7254C34.7229 86.484 33.8413 86.9194 32.8881 86.9194L32.8896 86.9179ZM19.5365 74.8567C18.9376 74.8142 18.366 74.5973 17.8871 74.2301C17.2365 73.731 16.8215 73.0103 16.7151 72.2017C16.6087 71.3916 16.8245 70.5905 17.3231 69.9473L21.8867 64.0729C22.4719 63.3144 23.3582 62.8805 24.3205 62.8805C25.0015 62.8805 25.6476 63.1005 26.1887 63.5146C26.8379 64.0138 27.2544 64.7344 27.3608 65.543C27.4657 66.3456 27.2544 67.1421 26.7634 67.7838L22.1345 73.7325C21.5492 74.4516 20.6751 74.8643 19.7387 74.8643C19.6703 74.8643 19.6004 74.8628 19.535 74.8582L19.5365 74.8567ZM22.2865 79.4718C22.1801 78.6617 22.3959 77.8621 22.893 77.2174L24.2885 75.4226C24.2885 75.4226 24.2977 75.412 24.3037 75.4059C24.322 75.3862 24.3387 75.368 24.3569 75.3437L28.9281 69.4603L28.9357 69.4496L30.8009 67.0511C31.3862 66.2925 32.274 65.8586 33.2362 65.8586C33.9173 65.8586 34.5633 66.0786 35.1045 66.4943C35.7536 66.9919 36.1701 67.7125 36.275 68.5227C36.3799 69.3328 36.1656 70.1339 35.6685 70.7771L34.7093 72.009C34.6941 72.0273 34.6789 72.0439 34.6621 72.0621L34.6591 72.0652C34.6241 72.1031 34.5846 72.1471 34.5466 72.1972L32.575 74.752L27.7591 80.9419C27.1738 81.7005 26.2921 82.1359 25.339 82.1359C25.2614 82.1359 25.1839 82.1329 25.1049 82.1268C24.5059 82.0843 23.9359 81.8674 23.457 81.5002C22.8079 81.0026 22.3929 80.282 22.2865 79.4718ZM82.6857 62.2357C82.2995 61.9505 78.9719 59.7112 73.5708 56.0792L73.5464 56.0625C67.6117 52.0725 59.488 46.6108 58.9346 46.1754C58.357 45.6778 57.2624 45.4244 55.683 45.4244C55.1281 45.4244 54.6508 45.4578 54.4152 45.4775C53.8481 45.5245 53.2583 45.5488 52.6594 45.5488C51.9783 45.5488 51.273 45.5185 50.5646 45.4563C50.4247 45.4441 50.2773 45.4259 50.1329 45.4092H50.1237C49.7954 45.3683 49.4229 45.3243 49.0338 45.3243C48.5808 45.3243 48.1749 45.3849 47.7918 45.5094C46.7019 45.8644 46.0147 46.6305 45.4067 47.3072C45.244 47.4892 45.0586 47.6971 44.8883 47.8594C43.6889 49.0124 42.7175 49.8195 41.74 50.4764C40.381 51.3913 39.1375 51.8646 37.9366 51.9268C37.8469 51.9314 37.7542 51.9344 37.6614 51.9344C36.8101 51.9344 35.8965 51.7357 34.9434 51.3412C34.346 51.0939 33.7713 50.7981 33.2286 50.4567C33.7303 49.7528 34.0951 49.2779 34.4204 48.8546L34.4387 48.8303C34.8522 48.2918 35.2428 47.7835 35.7992 46.9612C36.1154 46.4925 36.4271 46.0024 36.7463 45.5003C37.59 44.1728 38.4641 42.7982 39.3427 42.0503C40.5482 41.0247 41.9741 40.6439 43.6266 40.2024L44.1404 40.0644C45.7852 39.6183 47.6367 38.9903 49.4275 38.3834H49.4336C50.2332 38.1103 50.9492 37.8676 51.6165 37.6506C54.2936 36.7783 56.0889 36.3064 57.9039 36.3064C59.2432 36.3064 60.619 36.5765 62.2319 37.1545C64.8952 38.1088 67.9735 38.614 71.1339 38.614C73.2166 38.614 75.2049 38.394 77.0474 37.9601C77.0945 37.9495 77.131 37.9419 77.172 37.9328C77.1994 37.9267 77.2283 37.9207 77.2617 37.9131L90.5282 57.9073C87.6171 60.626 84.5114 62.0612 83.1691 62.6013C83.0231 62.48 82.8818 62.3738 82.7434 62.2797C82.7237 62.2645 82.7009 62.2448 82.6811 62.2296L82.6857 62.2357Z" fill="#005D98"/>
<path d="M61.4498 12.4101C60.6106 11.8958 59.51 12.1537 58.9947 12.9926L50.8755 26.1401L46.5233 23.0831C45.7191 22.5172 44.6033 22.7099 44.0363 23.5139C43.4693 24.318 43.6623 25.4301 44.468 25.996L51.9214 31.2331L62.032 14.8633C62.5489 14.0258 62.2889 12.9289 61.4498 12.4116V12.4101Z" fill="#005D98"/>
</g>
<defs>
<clipPath id="clip0_2776_30519">
<rect width="102" height="93" fill="white" transform="translate(0.664062)"/>
</clipPath>
</defs>
</svg>
