<svg width="100" height="86" viewBox="0 0 100 86" fill="none" xmlns="http://www.w3.org/2000/svg">
<g clip-path="url(#clip0_2753_27258)">
<path d="M68.5949 75.3636L65.2986 78.6409L62.4904 75.8474L61.1033 74.4683L59.3316 75.3053C58.2503 75.8151 57.1258 76.2789 55.992 76.6797L54.1446 77.334V83.2357H33.6872V77.337L31.8398 76.6828C30.7045 76.2805 29.58 75.8182 28.4987 75.3084L26.727 74.4714L25.3415 75.8505L22.5317 78.6424L8.06605 64.2604L10.8603 61.4823L12.2505 60.1017L11.404 58.3387C10.8881 57.2606 10.4201 56.1396 10.0123 55.0047L9.35274 53.171H3.44444V32.832H9.32957L9.9876 30.9922C10.3938 29.8512 10.8634 28.7225 11.3824 27.6383L12.2227 25.8768L10.8356 24.4977L8.0645 21.7411L22.5302 7.35914L26.6776 11.4825L28.4509 10.6425C29.5445 10.125 30.6829 9.65504 31.8367 9.24654L33.6841 8.59232V2.76429H54.1415V8.59232L55.989 9.24654C57.1413 9.65504 58.2812 10.125 59.3733 10.6425L61.1466 11.4825L62.5367 10.1019L65.297 7.35761L79.7627 21.7396L76.9885 24.4962L75.6014 25.8752L76.4433 27.6367C76.9607 28.7209 77.4303 29.8497 77.8381 30.9892L78.4946 32.829H84.3843V36.1753C85.3528 36.3058 86.2812 36.4579 87.1647 36.6299V31.7017C87.1647 30.7987 86.4279 30.0662 85.5197 30.0662H80.4578C80.0161 28.8315 79.5156 27.626 78.9549 26.4527L82.5323 22.896C83.1733 22.2586 83.1733 21.222 82.5323 20.5847L66.4602 4.60561C66.1389 4.28618 65.7172 4.12646 65.297 4.12646C64.8769 4.12646 64.4552 4.28618 64.1339 4.60561L60.5704 8.1485C59.3856 7.58796 58.1685 7.08579 56.9219 6.64504V1.63554C56.9219 0.732536 56.1851 0 55.2769 0H32.5488C31.6406 0 30.9038 0.732536 30.9038 1.63554V6.6435C29.6572 7.08425 28.4385 7.58643 27.2553 8.14696L23.6918 4.60561C23.3705 4.28618 22.9503 4.128 22.5302 4.128C22.11 4.128 21.6884 4.28618 21.3671 4.60561L5.29494 20.5847C4.65236 21.2236 4.65236 22.2586 5.29494 22.8975L8.87081 26.4527C8.3101 27.626 7.80809 28.833 7.36632 30.0677H2.30912C1.40086 30.0677 0.664062 30.8003 0.664062 31.7033V54.2998C0.664062 55.2028 1.40086 55.9353 2.30912 55.9353H7.39258C7.83435 57.1624 8.33482 58.3617 8.89398 59.5274L5.29648 63.1056C4.65545 63.7429 4.65545 64.7795 5.29648 65.4168L21.3686 81.3959C21.6899 81.7154 22.1116 81.8751 22.5317 81.8751C22.9519 81.8751 23.3736 81.7154 23.6949 81.3959L27.3063 77.8054C28.4756 78.3568 29.6773 78.8513 30.9069 79.2859V84.3645C30.9069 85.2675 31.6437 86 32.5519 86H55.28C56.1882 86 56.925 85.2675 56.925 84.3645V79.2843C58.1546 78.8482 59.3548 78.3537 60.5241 77.8024L64.137 81.3944C64.4583 81.7138 64.8784 81.872 65.2986 81.872C65.7187 81.872 66.1404 81.7138 66.4617 81.3944L70.5411 77.3386C69.8661 76.6905 69.2174 76.0317 68.5949 75.3636Z" fill="#005D98"/>
<path d="M58.1868 59.5934C54.2124 62.9827 49.2061 64.8333 43.9126 64.8333C38.046 64.8333 32.5316 62.5619 28.3842 58.4385C24.2368 54.3151 21.9523 48.8326 21.9523 43C21.9523 37.1674 24.2368 31.6849 28.3842 27.5615C32.5316 23.4381 38.046 21.1668 43.9126 21.1668C49.7792 21.1668 55.2936 23.4381 59.441 27.5615C62.1735 30.2781 64.0966 33.5861 65.0914 37.1935C65.944 36.98 66.8492 36.7788 67.8053 36.5976C64.9709 26.1179 55.3492 18.4025 43.9126 18.4025C30.2486 18.4025 19.1719 29.4151 19.1719 43C19.1719 56.5849 30.2486 67.5975 43.9126 67.5975C49.7854 67.5975 55.1809 65.5612 59.424 62.1626C58.9807 61.2919 58.5683 60.435 58.1868 59.5934Z" fill="#005D98"/>
<path d="M77.401 80.2365C76.7136 80.2365 76.0262 80.0123 75.4532 79.5654C59.8043 67.3672 55.8268 48.8588 55.1888 45.2729C54.9572 43.9691 55.575 42.6576 56.7273 42.0095C58.7014 40.8946 66.0339 37.2488 77.401 37.2488C88.7681 37.2488 96.1006 40.893 98.0777 42.0095C99.2269 42.6591 99.8448 43.9706 99.6116 45.2744C98.9736 48.8588 94.9961 67.3672 79.3472 79.5669C78.7742 80.0138 78.0868 80.2365 77.3994 80.2365H77.401ZM59.6328 45.3635C60.5812 50.009 64.5464 65.1143 77.401 75.5787C90.2556 65.1159 94.2192 50.009 95.1691 45.3635C92.6869 44.1057 86.5469 41.5718 77.401 41.5718C68.2551 41.5718 62.1104 44.1073 59.6328 45.3635ZM58.8759 45.7674C58.8759 45.7674 58.8744 45.7674 58.8729 45.7689C58.8729 45.7689 58.8744 45.7674 58.8759 45.7674ZM86.8048 50.7769C87.2775 50.0152 87.0396 49.017 86.2719 48.5455C85.5042 48.0786 84.5002 48.3121 84.0275 49.0753L76.6086 61.0416L72.6326 58.2589C71.8974 57.7444 70.8779 57.9195 70.3604 58.652C69.8414 59.3846 70.0191 60.3951 70.7559 60.9111L77.5663 65.6779L86.8033 50.7769H86.8048Z" fill="#005D98"/>
</g>
<defs>
<clipPath id="clip0_2753_27258">
<rect width="99" height="86" fill="white" transform="translate(0.664062)"/>
</clipPath>
</defs>
</svg>
