<svg width="65" height="55" viewBox="0 0 65 55" fill="none" xmlns="http://www.w3.org/2000/svg">
<g clip-path="url(#clip0_12075_13208)">
<path d="M33.5804 8.64648C29.8574 8.64648 26.8281 11.6172 26.8281 15.2682C26.8281 18.9193 29.8574 21.89 33.5804 21.89C37.3034 21.89 40.3327 18.9193 40.3327 15.2682C40.3327 11.6172 37.3034 8.64648 33.5804 8.64648ZM33.5804 20.4754C30.6529 20.4754 28.2716 18.1402 28.2716 15.2692C28.2716 12.3983 30.6529 10.063 33.5804 10.063C36.5079 10.063 38.8892 12.3983 38.8892 15.2692C38.8892 18.1402 36.5079 20.4754 33.5804 20.4754Z" fill="#005D98"/>
<path d="M61.1496 0.765625H4.51308C2.45933 0.765625 0.789062 2.4036 0.789062 4.41766V36.7164C0.789062 38.7304 2.45933 40.3684 4.51308 40.3684H21.8963V52.4388H16.4643V54.2344H49.1993V52.4388H43.7674V40.3684H61.1506C63.2043 40.3684 64.8746 38.7304 64.8746 36.7164V4.41766C64.8746 2.4036 63.2043 0.765625 61.1506 0.765625H61.1496ZM40.6669 38.5728H25.2114V32.6254C25.2114 28.4467 28.678 25.047 32.9391 25.047C37.2003 25.047 40.6669 28.4467 40.6669 32.6254V38.5728ZM41.9354 52.4388H23.7272V40.3684H41.9354V52.4388ZM63.0426 36.7164C63.0426 37.7399 62.1932 38.5728 61.1496 38.5728H42.1958V32.6254C42.1958 27.6197 38.0435 23.5477 32.9391 23.5477C27.8348 23.5477 23.6825 27.6197 23.6825 32.6254V38.5728H4.51308C3.46942 38.5728 2.62005 37.7399 2.62005 36.7164V4.41766C2.62005 3.39417 3.46942 2.56122 4.51308 2.56122H61.1496C62.1932 2.56122 63.0426 3.39417 63.0426 4.41766V36.7164Z" fill="#005D98"/>
<path d="M35.6289 14.8012L32.6993 13.3647C32.2487 13.1443 31.7188 13.4655 31.7188 13.9593V16.8322C31.7188 17.326 32.2487 17.6472 32.6993 17.4268L35.6289 15.9903C36.1284 15.7459 36.1284 15.0466 35.6289 14.8022V14.8012Z" fill="#005D98"/>
</g>
<defs>
<clipPath id="clip0_12075_13208">
<rect width="64.0845" height="53.4688" fill="white" transform="translate(0.789062 0.765625)"/>
</clipPath>
</defs>
</svg>
