<svg width="55" height="53" viewBox="0 0 55 53" fill="none" xmlns="http://www.w3.org/2000/svg">
<path d="M33.0768 25.517H50.4555C52.759 25.517 54.6328 23.6589 54.6328 21.3748V4.14217C54.6328 1.85803 52.759 0 50.4555 0H33.0778C30.7743 0 28.9006 1.85803 28.9006 4.14217V21.3738C28.9006 23.658 30.7743 25.516 33.0778 25.516L33.0768 25.517ZM50.4555 1.78371C51.7667 1.78371 52.834 2.84205 52.834 4.14217V21.3738C52.834 22.6739 51.7667 23.7323 50.4555 23.7323H33.0778C31.7667 23.7323 30.6994 22.6739 30.6994 21.3738V4.14217C30.6994 2.84205 31.7667 1.78371 33.0778 1.78371H50.4555ZM5.09607 25.517H22.4738C24.7773 25.517 26.651 23.6589 26.651 21.3748V4.14217C26.651 1.85803 24.7773 0 22.4738 0H5.09607C2.79256 0 0.918785 1.85803 0.918785 4.14217V21.3738C0.918785 23.658 2.79256 25.516 5.09607 25.516V25.517ZM22.4738 1.78371C23.7849 1.78371 24.8522 2.84205 24.8522 4.14217V21.3738C24.8522 22.6739 23.7849 23.7323 22.4738 23.7323H5.09607C3.78492 23.7323 2.71761 22.6739 2.71761 21.3738V4.14217C2.71761 2.84205 3.78492 1.78371 5.09607 1.78371H22.4738ZM33.0329 53H50.4106C52.7141 53 54.5878 51.142 54.5878 48.8578V31.6262C54.5878 29.342 52.7141 27.484 50.4106 27.484H33.0329C30.7294 27.484 28.8556 29.342 28.8556 31.6262V48.8578C28.8556 51.142 30.7294 53 33.0329 53ZM50.4106 29.2667C51.7217 29.2667 52.789 30.3251 52.789 31.6252V48.8568C52.789 50.157 51.7217 51.2153 50.4106 51.2153H33.0329C31.7217 51.2153 30.6544 50.157 30.6544 48.8568V31.6252C30.6544 30.3251 31.7217 29.2667 33.0329 29.2667H50.4106ZM5.05109 53H22.4288C24.7323 53 26.6061 51.142 26.6061 48.8578V31.6262C26.6061 29.342 24.7323 27.484 22.4288 27.484H5.05109C2.74759 27.484 0.873814 29.342 0.873814 31.6262V48.8578C0.873814 51.142 2.74759 53 5.05109 53ZM22.4288 29.2667C23.7399 29.2667 24.8072 30.3251 24.8072 31.6252V48.8568C24.8072 50.157 23.7399 51.2153 22.4288 51.2153H5.05109C3.73994 51.2153 2.67264 50.157 2.67264 48.8568V31.6252C2.67264 30.3251 3.73994 29.2667 5.05109 29.2667H22.4288Z" fill="#005D98"/>
</svg>
