<svg width="94" height="94" viewBox="0 0 94 94" fill="none" xmlns="http://www.w3.org/2000/svg">
<g clip-path="url(#clip0_2776_30533)">
<path d="M69.8657 30.932H66.0898V27.1628C66.0898 26.9279 65.8991 26.7375 65.6637 26.7375H62.1124C61.8771 26.7375 61.6863 26.9279 61.6863 27.1628V30.932H57.9104C57.6751 30.932 57.4844 31.1224 57.4844 31.3573V34.9024C57.4844 35.1373 57.6751 35.3277 57.9104 35.3277H61.6863V39.0969C61.6863 39.3318 61.8771 39.5222 62.1124 39.5222H65.6637C65.8991 39.5222 66.0898 39.3318 66.0898 39.0969V35.3277H69.8657C70.101 35.3277 70.2918 35.1373 70.2918 34.9024V31.3573C70.2918 31.1224 70.101 30.932 69.8657 30.932Z" fill="#005D98"/>
<path d="M35.68 33.1291C44.8299 33.1291 52.2741 25.6982 52.2741 16.5646C52.2741 7.43095 44.8299 0 35.68 0C26.5301 0 19.0859 7.43095 19.0859 16.5646C19.0859 25.6982 26.5301 33.1291 35.68 33.1291ZM35.68 3.24106C43.0396 3.24106 49.0272 9.21807 49.0272 16.5646C49.0272 23.9111 43.0396 29.8866 35.68 29.8866C28.3204 29.8866 22.3343 23.9095 22.3343 16.5646C22.3343 9.2196 28.3204 3.24106 35.68 3.24106Z" fill="#005D98"/>
<path d="M36.4744 49.6998H34.8918C33.6967 49.6998 32.6908 50.5949 32.5539 51.7863L29.6562 77.4369L35.6839 83.4539L41.71 77.4369L38.8123 51.7833C38.6754 50.5965 37.6711 49.6998 36.4744 49.6998ZM35.6839 78.8694L33.0584 76.2486L35.6823 53.0177L38.3078 76.2486L35.6839 78.8694Z" fill="#005D98"/>
<path d="M58.9357 88.5803V90.7574H12.4265V62.443C12.4265 52.0566 19.2539 43.035 29.1529 40.1609L35.6819 48.1599L42.2094 40.1609C47.325 41.6456 51.61 44.7822 54.5661 48.8907C55.6182 48.6113 56.7594 48.3518 57.9745 48.1231C54.4046 42.579 48.7923 38.4106 42.0002 36.751L41.0036 36.5068L35.6819 43.0273L30.3602 36.5068L29.3636 36.751C17.4806 39.6542 9.17969 50.2188 9.17969 62.443V93.9984H62.1841V91.6678C61.0367 90.6668 59.9524 89.6351 58.9373 88.5803H58.9357Z" fill="#005D98"/>
<path d="M12.7392 18.149H8.96325V14.3798C8.96325 14.1448 8.77253 13.9545 8.53721 13.9545H4.98584C4.75052 13.9545 4.5598 14.1448 4.5598 14.3798V18.149H0.785416C0.550094 18.149 0.359375 18.3393 0.359375 18.5742V22.1193C0.359375 22.3542 0.550094 22.5446 0.785416 22.5446H4.56134V26.3138C4.56134 26.5487 4.75206 26.7391 4.98738 26.7391H8.53875C8.77407 26.7391 8.96479 26.5487 8.96479 26.3138V22.5446H12.7407C12.976 22.5446 13.1668 22.3542 13.1668 22.1193V18.5742C13.1668 18.3393 12.976 18.149 12.7407 18.149H12.7392Z" fill="#005D98"/>
<path d="M71.1965 93.2523C70.5121 93.2523 69.8276 93.0282 69.257 92.5814C53.675 80.3863 49.7145 61.8827 49.0793 58.2977C48.8486 56.9942 49.4638 55.683 50.6112 55.0351C52.5768 53.9205 59.8779 50.2756 71.1965 50.2756C82.515 50.2756 89.8162 53.919 91.7849 55.0351C92.9292 55.6846 93.5444 56.9957 93.3122 58.2992C92.677 61.8827 88.7165 80.3863 73.1344 92.5829C72.5638 93.0297 71.8794 93.2523 71.195 93.2523H71.1965ZM53.5042 58.3883C54.4486 63.0326 58.3968 78.134 71.1965 88.5957C83.9962 78.1356 87.9428 63.0326 88.8887 58.3883C86.4171 57.1308 80.3033 54.5976 71.1965 54.5976C62.0897 54.5976 55.9713 57.1324 53.5042 58.3883ZM52.7506 58.7921C52.7506 58.7921 52.7491 58.7921 52.7475 58.7936C52.7475 58.7936 52.7491 58.7921 52.7506 58.7921ZM80.5602 63.8003C81.0308 63.0388 80.7939 62.0408 80.0295 61.5695C79.2651 61.1027 78.2654 61.3361 77.7947 62.0991L70.4075 74.0624L66.4485 71.2804C65.7164 70.766 64.7013 70.941 64.186 71.6734C63.6693 72.4057 63.8461 73.416 64.5798 73.9319L71.3611 78.6975L80.5586 63.8003H80.5602Z" fill="#005D98"/>
</g>
<defs>
<clipPath id="clip0_2776_30533">
<rect width="93" height="94" fill="white" transform="translate(0.359375)"/>
</clipPath>
</defs>
</svg>
