<svg width="47" height="55" viewBox="0 0 47 55" fill="none" xmlns="http://www.w3.org/2000/svg">
<g clip-path="url(#clip0_12075_20432)">
<path d="M35.753 0H4.02149C2.14863 0 0.625 1.53376 0.625 3.41907V47.4238C0.625 49.3091 2.14863 50.8429 4.02149 50.8429H39.3805C41.2533 50.8429 42.777 49.3091 42.777 47.4238V7.05928L35.753 0ZM39.3805 49.1409H4.02149C3.08084 49.1409 2.3148 48.3707 2.3148 47.4229V3.41907C2.3148 2.47216 3.0799 1.70103 4.02149 1.70103H34.665L34.7035 8.03265H41.0872V47.4229C41.0872 48.3698 40.3221 49.1409 39.3805 49.1409Z" fill="#005D98"/>
<path d="M19.354 14.8369H7.47656V16.5379H19.354V14.8369Z" fill="#005D98"/>
<path d="M33.5745 19.751H7.47656V21.452H33.5745V19.751Z" fill="#005D98"/>
<path d="M33.5745 24.665H7.47656V26.3661H33.5745V24.665Z" fill="#005D98"/>
<path d="M33.5745 29.5791H7.47656V31.2801H33.5745V29.5791Z" fill="#005D98"/>
<path d="M33.5745 34.4932H7.47656V36.1942H33.5745V34.4932Z" fill="#005D98"/>
<path d="M35.753 0H4.02149C2.14863 0 0.625 1.53376 0.625 3.41907V47.4238C0.625 49.3091 2.14863 50.8429 4.02149 50.8429H39.3805C41.2533 50.8429 42.777 49.3091 42.777 47.4238V7.05928L35.753 0ZM39.3805 49.1409H4.02149C3.08084 49.1409 2.3148 48.3707 2.3148 47.4229V3.41907C2.3148 2.47216 3.0799 1.70103 4.02149 1.70103H34.665L34.7035 8.03265H41.0872V47.4229C41.0872 48.3698 40.3221 49.1409 39.3805 49.1409Z" fill="#005D98"/>
<path d="M44.9368 9.92285V51.5811C44.9368 52.528 44.1717 53.2991 43.2302 53.2991H7.87211C6.93709 53.2991 6.17575 52.5375 6.16636 51.5981H4.47656C4.48595 53.4759 6.00489 55.0002 7.87211 55.0002H43.2311C45.104 55.0002 46.6276 53.4664 46.6276 51.5811V9.92285H44.9378H44.9368Z" fill="#005D98"/>
</g>
<defs>
<clipPath id="clip0_12075_20432">
<rect width="46" height="55" fill="white" transform="translate(0.625)"/>
</clipPath>
</defs>
</svg>
