<svg width="26" height="26" viewBox="0 0 26 26" fill="none" xmlns="http://www.w3.org/2000/svg">
<g clip-path="url(#clip0_701_22308)">
<path d="M25.2579 18.3709L19.571 15.9336L19.5705 15.9331C19.0714 15.7204 18.4915 15.863 18.1488 16.2835L15.6303 19.3605C11.6774 17.4965 8.49683 14.3159 6.63285 10.3635L9.70986 7.84504V7.84453C10.1308 7.50179 10.2735 6.92142 10.0602 6.4228L7.62298 0.735912C7.38738 0.195657 6.80092 -0.100874 6.22613 0.0296198L0.945446 1.24824H0.944938C0.391989 1.37569 0 1.86821 0 2.43589C0 15.4599 10.5563 25.9959 23.56 25.9959C24.1277 25.9959 24.6202 25.6044 24.7481 25.0509L25.9668 19.7702V19.7697C26.0962 19.1924 25.7977 18.6039 25.2549 18.3683L25.2579 18.3709Z" fill="#2E2B2A"/>
</g>
<defs>
<clipPath id="clip0_701_22308">
<rect width="26" height="26" fill="white"/>
</clipPath>
</defs>
</svg>
