<svg width="98" height="69" viewBox="0 0 98 69" fill="none" xmlns="http://www.w3.org/2000/svg">
<g clip-path="url(#clip0_5495_23174)">
<path d="M97.0436 1.20371C97.0244 1.19696 97.004 1.19246 96.9848 1.18796C96.952 1.18009 96.9192 1.17334 96.8853 1.16771C96.866 1.16434 96.8468 1.16096 96.8264 1.15871C96.7732 1.15196 96.7189 1.14746 96.6646 1.14746H32.2937C32.2383 1.14746 32.1851 1.15196 32.1308 1.15871C32.1116 1.16096 32.0924 1.16434 32.072 1.16771C32.0392 1.17334 32.0064 1.18009 31.9736 1.18796C31.9532 1.19246 31.9328 1.19696 31.9136 1.20371C31.3637 1.36684 30.9609 1.87309 30.9609 2.47272V42.5286C31.633 43.1259 32.313 43.7008 32.9975 44.2509V4.5326L54.1629 24.6916L33.3392 44.5254C33.8845 44.9552 34.4321 45.367 34.982 45.7641L55.636 26.0933L63.5469 33.6286C63.8083 33.8773 64.1443 34.0021 64.4792 34.0021C64.8141 34.0021 65.149 33.8773 65.4103 33.6286L73.3223 26.0933L94.4436 46.2096H60.5452L65.6434 48.2346H96.6646C96.7189 48.2346 96.7732 48.2301 96.8264 48.2245C96.8468 48.2222 96.866 48.2188 96.8853 48.2155C96.9192 48.2098 96.952 48.2031 96.9848 48.1952C97.004 48.1896 97.0244 48.1851 97.0436 48.1795C97.5946 48.0163 97.9974 47.509 97.9974 46.9093V2.47272C97.9974 1.87309 97.5946 1.36684 97.0436 1.20371ZM64.4792 31.7116L34.5136 3.17247H94.4436L64.4792 31.7116ZM95.9609 44.8506L74.7943 24.6916L95.9609 4.5326V44.8506Z" fill="#003159"/>
<path d="M51.8629 69.0003C49.2211 69.0003 46.3688 68.6021 43.3592 67.7988C34.4651 65.4228 25.1898 59.7629 17.2416 51.8597C9.29221 43.9554 3.59779 34.7315 1.20823 25.8867C-1.23789 16.8304 0.0564518 9.21636 4.85253 4.44746L4.85593 4.44409C7.8836 1.43807 14.3813 0.11844 14.6574 0.0633148C16.2414 -0.250562 17.9396 0.640443 18.5235 2.09283L25.2825 18.9004C25.8369 20.2842 25.4217 22.1506 24.3186 23.2418L19.415 28.1165C18.8402 28.6891 18.6558 29.5238 18.9523 30.2C18.9839 30.263 19.0167 30.3237 19.0518 30.3878C19.0563 30.3957 19.0609 30.4047 19.0654 30.4137L19.0711 30.4239C19.0869 30.4509 19.1027 30.4779 19.1174 30.5071C21.163 34.2376 24.1013 38.0593 27.6121 41.5479C31.1308 45.0456 34.9754 47.9683 38.7283 49.999C38.7589 50.0158 38.7894 50.0338 38.8177 50.053C38.8188 50.053 38.8256 50.0575 38.8335 50.062L38.8878 50.0901C38.9331 50.1137 38.9784 50.1373 39.0247 50.1598C39.7002 50.4557 40.5408 50.2701 41.1201 49.6941L46.0158 44.8262C47.1178 43.7293 48.9925 43.3175 50.3774 43.8688L67.2887 50.5862C68.7516 51.1712 69.6466 52.861 69.3286 54.4326C69.2732 54.706 67.9449 61.168 64.9206 64.1774C61.7097 67.3702 57.2157 69.0026 51.8629 69.0026V69.0003ZM6.42294 6.00335L6.42068 6.0056C2.20728 10.194 1.11659 17.0509 3.34888 25.3152C5.63887 33.7921 11.1296 42.6662 18.8086 50.3005C26.4864 57.9347 35.4087 63.3933 43.934 65.6703C52.2454 67.8899 59.1413 66.8054 63.3536 62.617C65.9027 60.0813 67.1439 54.0569 67.1563 53.9961C67.2627 53.4674 66.9334 52.816 66.4639 52.6281L49.5548 45.9118C49.0038 45.6924 48.0467 45.9208 47.5839 46.3809L42.6871 51.25C41.455 52.474 39.6108 52.8385 38.097 52.1578C38.0868 52.1533 38.0766 52.1488 38.0664 52.1432C37.9963 52.1095 37.9295 52.0746 37.8616 52.0386L37.7938 52.0037C37.779 51.997 37.7655 51.9891 37.7519 51.9812C37.71 51.9576 37.6704 51.934 37.6354 51.9126C33.7082 49.783 29.7019 46.7376 26.0451 43.1027C22.3872 39.4667 19.3166 35.4718 17.1669 31.5489L17.1567 31.5309C17.1397 31.5027 17.1239 31.4735 17.108 31.4442C17.0549 31.3475 17.0051 31.2541 16.9576 31.1585C16.9508 31.1461 16.9451 31.1337 16.9395 31.1202C16.2561 29.6116 16.6215 27.7778 17.848 26.5572L22.7538 21.6803C23.2177 21.2213 23.4451 20.2673 23.2245 19.716L16.4654 2.91071C16.2787 2.44495 15.6225 2.1187 15.0919 2.22333C15.0319 2.2357 8.97542 3.46758 6.42294 6.00222V6.00335Z" fill="#003159"/>
</g>
<defs>
<clipPath id="clip0_5495_23174">
<rect width="98" height="69" fill="white"/>
</clipPath>
</defs>
</svg>
