<svg width="92" height="87" viewBox="0 0 92 87" fill="none" xmlns="http://www.w3.org/2000/svg">
<g clip-path="url(#clip0_5495_23175)">
<path d="M36.0765 77.3576C27.3927 73.5206 21.3138 64.7983 21.3138 54.675V33.3251C21.3138 19.6683 32.3777 8.55667 45.9759 8.55667C59.5742 8.55667 70.6381 19.6683 70.6381 33.3251V54.675C70.6381 64.8019 64.5544 73.5278 55.8647 77.3624C56.008 77.5687 56.1394 77.7798 56.2576 77.9969C57.8006 77.8626 59.3126 77.5735 60.7756 77.1369C62.2566 76.1486 63.6491 75.0055 64.9354 73.7149C69.9992 68.6293 72.7878 61.8669 72.7878 54.6738V33.3239C72.7878 26.1308 69.9992 19.3696 64.9354 14.2828C59.8716 9.19717 53.1381 6.39648 45.9759 6.39648C38.8138 6.39648 32.0815 9.19717 27.0165 14.2828C21.9527 19.3684 19.1641 26.1308 19.1641 33.3239V54.6738C19.1641 61.8669 21.9527 68.6281 27.0165 73.7149C29.4015 76.1102 32.158 77.9993 35.1545 79.3271C35.3396 78.635 35.6489 77.9741 36.0753 77.3576H36.0765Z" fill="#003159"/>
<path d="M92 44.0397C92 37.6611 87.0735 32.416 80.8405 31.941C80.1072 23.7645 76.5841 16.1732 70.7332 10.2972C64.1204 3.65708 55.3304 0 45.9791 0C36.6278 0 27.8378 3.65708 21.2262 10.2972C15.3741 16.1744 11.8522 23.7669 11.1189 31.9446C4.90496 32.44 0 37.6755 0 44.0397C0 50.7302 5.4197 56.1733 12.0815 56.1733C12.675 56.1733 13.1563 55.6899 13.1563 55.0938V33.6814C13.5158 25.4209 16.8885 17.7073 22.7453 11.8241C28.9509 5.59178 37.2022 2.15899 45.9779 2.15899C54.7536 2.15899 63.0049 5.59178 69.2105 11.8241C75.416 18.0563 78.8341 26.3432 78.8341 35.1579C78.8341 35.1987 78.8365 35.2395 78.8413 35.2791V54.9618C78.8365 55.0014 78.8341 55.0422 78.8341 55.083C78.8341 68.3847 68.3028 79.2612 55.174 79.747C54.381 76.8779 50.6273 74.7657 45.9779 74.7657C40.7326 74.7657 36.6242 77.4525 36.6242 80.8829C36.6242 84.3133 40.7326 87.0012 45.9779 87.0012C50.6882 87.0012 54.4801 84.8338 55.2038 81.906C61.9874 81.6697 68.3315 78.9074 73.1552 74.0629C77.9575 69.2399 80.7044 62.9057 80.9623 56.1289C87.1368 55.5951 91.9988 50.3776 91.9988 44.0409L92 44.0397ZM2.14973 44.0397C2.14973 38.911 6.02521 34.6733 10.9899 34.1252C10.9803 34.4682 10.9732 34.8125 10.9732 35.1567C10.9732 35.2479 10.9851 35.3354 11.0066 35.4206V53.9555C6.03357 53.4157 2.14973 49.1745 2.14973 44.0385V44.0397ZM51.2758 83.5216C49.8773 84.372 47.9963 84.841 45.9791 84.841C43.9619 84.841 42.0797 84.372 40.6824 83.5216C39.9706 83.0886 38.7751 82.1687 38.7751 80.8817C38.7751 79.5947 39.9694 78.6759 40.6824 78.2429C42.0809 77.3925 43.9619 76.9235 45.9791 76.9235C47.9963 76.9235 49.8785 77.3925 51.2758 78.2429C51.9876 78.6759 53.1831 79.5959 53.1831 80.8817C53.1831 82.1675 51.9888 83.0874 51.2758 83.5216ZM80.9922 53.9567V34.1228C85.9652 34.6625 89.8491 38.9038 89.8491 44.0397C89.8491 49.1757 85.9652 53.417 80.9922 53.9567Z" fill="#003159"/>
</g>
<defs>
<clipPath id="clip0_5495_23175">
<rect width="92" height="87" fill="white"/>
</clipPath>
</defs>
</svg>
