<svg width="70" height="91" viewBox="0 0 70 91" fill="none" xmlns="http://www.w3.org/2000/svg">
<g clip-path="url(#clip0_2753_27239)">
<path d="M63.4994 6.65163H55.6374V5.69918C55.6374 2.55593 53.0786 0 49.9318 0H20.6797C17.5329 0 14.9741 2.55593 14.9741 5.69918V6.65163H6.82872C3.42973 6.65163 0.664062 9.41418 0.664062 12.8093V84.8409C0.664062 88.236 3.42973 90.9986 6.82872 90.9986H63.498C66.897 90.9986 69.6626 88.236 69.6626 84.8409V12.8093C69.6626 9.41418 66.897 6.65163 63.498 6.65163H63.4994ZM17.5244 5.69918C17.5244 3.96126 18.9399 2.54743 20.6797 2.54743H49.9318C51.6716 2.54743 53.0871 3.96126 53.0871 5.69918V10.6143H17.5244V5.69918ZM67.1138 84.8423C67.1138 86.8335 65.4915 88.4526 63.4994 88.4526H6.82872C4.83523 88.4526 3.21437 86.8321 3.21437 84.8423V12.8093C3.21437 10.8181 4.83665 9.19907 6.82872 9.19907H14.9741V13.1617H55.6374V9.19907H63.4994C65.4929 9.19907 67.1138 10.8195 67.1138 12.8093V84.8409V84.8423Z" fill="#005D98"/>
<path d="M58.916 28.1633H26.1871C25.6388 28.1633 25.1953 28.6063 25.1953 29.154C25.1953 29.7017 25.6388 30.1447 26.1871 30.1447H58.916C59.4644 30.1447 59.9078 29.7017 59.9078 29.154C59.9078 28.6063 59.4644 28.1633 58.916 28.1633Z" fill="#005D98"/>
<path d="M20.7524 23.6317C20.3104 23.3614 19.7309 23.4972 19.4603 23.9388L15.1857 30.8664L12.8947 29.2558C12.471 28.9572 11.8845 29.0591 11.5855 29.4837C11.2866 29.9083 11.3886 30.4928 11.8136 30.7914L15.7383 33.5511L21.0613 24.9252C21.3334 24.4836 21.1959 23.9062 20.7553 23.6331L20.7524 23.6317Z" fill="#005D98"/>
<path d="M58.916 44.5801H26.1871C25.6388 44.5801 25.1953 45.023 25.1953 45.5707C25.1953 46.1184 25.6388 46.5614 26.1871 46.5614H58.916C59.4644 46.5614 59.9078 46.1184 59.9078 45.5707C59.9078 45.023 59.4644 44.5801 58.916 44.5801Z" fill="#005D98"/>
<path d="M20.7524 40.0485C20.3104 39.7782 19.7309 39.9141 19.4603 40.3556L15.1857 47.2833L12.8947 45.6727C12.471 45.3741 11.8845 45.476 11.5855 45.9006C11.2866 46.3251 11.3886 46.9096 11.8136 47.2082L15.7383 49.968L21.0613 41.3421C21.3334 40.9005 21.1959 40.3231 20.7553 40.05L20.7524 40.0485Z" fill="#005D98"/>
<path d="M58.916 60.9968H26.1871C25.6388 60.9968 25.1953 61.4398 25.1953 61.9875C25.1953 62.5352 25.6388 62.9782 26.1871 62.9782H58.916C59.4644 62.9782 59.9078 62.5352 59.9078 61.9875C59.9078 61.4398 59.4644 60.9968 58.916 60.9968Z" fill="#005D98"/>
<path d="M20.7524 56.4653C20.3104 56.195 19.7309 56.3308 19.4603 56.7724L15.1857 63.7L12.8947 62.0895C12.471 61.7908 11.8845 61.8927 11.5855 62.3173C11.2866 62.7419 11.3886 63.3264 11.8136 63.625L15.7383 66.3847L21.0613 57.7588C21.3334 57.3173 21.1959 56.7398 20.7553 56.4667L20.7524 56.4653Z" fill="#005D98"/>
</g>
<defs>
<clipPath id="clip0_2753_27239">
<rect width="69" height="91" fill="white" transform="translate(0.664062)"/>
</clipPath>
</defs>
</svg>
