<svg width="102" height="90" viewBox="0 0 102 90" fill="none" xmlns="http://www.w3.org/2000/svg">
<g clip-path="url(#clip0_5495_23506)">
<path d="M65.5652 8.90734C48.2864 -5.0187 22.8785 -2.3187 8.92595 14.9233C-5.02842 32.1653 -2.32293 57.5215 14.9542 71.4476C31.4006 84.7026 55.2146 82.8937 69.5034 67.8156C69.6688 68.8044 70.1775 69.7381 71.0207 70.4162L94.1499 89.057C95.9749 90.5286 98.6484 90.2446 100.123 88.4233C101.598 86.602 101.313 83.934 99.4879 82.4624L76.3587 63.8215C75.5174 63.1434 74.4946 62.8417 73.4914 62.8896C85.2543 45.7772 82.0134 22.1624 65.567 8.90734H65.5652ZM68.6194 63.0352C55.9902 78.6405 32.9926 81.0831 17.3555 68.4813C1.71842 55.876 -0.729157 32.9269 11.9 17.3198C24.5292 1.71444 47.525 -0.728165 63.1639 11.8754C78.801 24.4789 81.2486 47.4298 68.6211 63.0352H68.6194Z" fill="#005D98"/>
<path d="M48.259 16.0703V58.7733H43.588V21.5804H33.1822V58.7733H28.5112V27.0904H18.1055V61.5283H58.6665V16.0703H48.2608H48.259ZM35.3043 23.6999H41.4624V58.7733H35.3043V23.6999ZM20.2275 29.21H26.3856V58.7733H20.2275V29.21ZM50.3828 58.7733V18.1898H56.5409V58.7733H50.3828Z" fill="#005D98"/>
</g>
<defs>
<clipPath id="clip0_5495_23506">
<rect width="101.066" height="90" fill="white"/>
</clipPath>
</defs>
</svg>
