<svg width="102" height="81" viewBox="0 0 102 81" fill="none" xmlns="http://www.w3.org/2000/svg">
<g clip-path="url(#clip0_5495_23510)">
<path d="M16.1673 16.6602C16.4347 16.2992 16.707 15.9413 16.992 15.5882C28.2956 1.54343 48.8793 -0.654909 62.8751 10.6883C70.0473 16.5021 74.1182 24.7602 74.8633 33.322L78.3945 35.2104C78.119 24.9839 73.5594 14.9332 65.0244 8.01704C49.5607 -4.51639 26.8197 -2.08639 14.33 13.4314C14.0482 13.7813 13.7776 14.136 13.5117 14.4923L16.1673 16.6602Z" fill="#005D98"/>
<path d="M95.3845 74.2181L74.6829 57.4413C73.9299 56.831 73.0144 56.5594 72.1165 56.6026C75.0841 52.2618 76.9834 47.4561 77.8543 42.5258L74.6606 40.8179C73.8614 46.4688 71.5832 51.979 67.7575 56.732C56.4538 70.7768 35.8701 72.9751 21.8743 61.6335C10.0358 52.0381 6.64471 35.7822 12.72 22.4979L9.98803 20.2676C2.76486 35.0856 6.40749 53.5111 19.7251 64.3047C34.4452 76.2343 55.7597 74.6063 68.5487 61.036C68.6968 61.9243 69.1521 62.7662 69.9067 63.3765L90.6083 80.1533C92.2417 81.4777 94.6346 81.2221 95.9544 79.5829C97.2742 77.9437 97.0195 75.5425 95.386 74.2181H95.3845Z" fill="#005D98"/>
<path d="M102 51.6387L91.4176 34.6032L87.3881 42.1935L55.9609 25.3848L42.2325 40.4058L1.80858 7.54565L0 9.77755L42.5191 44.3455L56.5722 28.9699L86.0396 44.7306L82.0085 52.3193L102 51.6387Z" fill="#005D98"/>
</g>
<defs>
<clipPath id="clip0_5495_23510">
<rect width="102" height="81" fill="white"/>
</clipPath>
</defs>
</svg>
