<svg width="66" height="61" viewBox="0 0 66 61" fill="none" xmlns="http://www.w3.org/2000/svg">
<g clip-path="url(#clip0_9646_48810)">
<path d="M39.0339 53.7353L39.4993 53.5307C45.6014 50.8566 49.5445 44.8497 49.5445 38.2269V23.4628C49.5445 14.2484 42.0169 6.75206 32.7641 6.75206C23.5113 6.75206 15.9838 14.2484 15.9838 23.4628V38.2269C15.9838 44.8528 19.9299 50.8618 26.0363 53.5338L26.5027 53.7384L26.2113 54.1549C26.117 54.2906 26.0321 54.4252 25.9618 54.5546L25.8308 54.7947L25.5573 54.7707C24.4609 54.6757 23.373 54.4701 22.3238 54.1601L22.263 54.1423L22.2106 54.1079C21.1499 53.4065 20.1532 52.5923 19.2455 51.6884C15.6347 48.0927 13.6454 43.3111 13.6454 38.2259V23.4618C13.6454 18.3765 15.6337 13.595 19.2455 9.99923C22.8563 6.40344 27.6577 4.42236 32.7641 4.42236C37.8705 4.42236 42.672 6.4024 46.2827 9.99923C49.8935 13.595 51.8828 18.3765 51.8828 23.4618V38.2259C51.8828 43.3111 49.8945 48.0927 46.2827 51.6884C44.5921 53.372 42.6395 54.707 40.4793 55.6558L40.0328 55.852L39.906 55.3823C39.7896 54.9513 39.5936 54.5369 39.3243 54.1497L39.0339 53.7332V53.7353Z" fill="#005D98"/>
<path d="M8.0679 22.1237C8.35508 19.3797 9.09086 16.7316 10.2585 14.2485C11.4785 11.6537 13.1429 9.29582 15.2045 7.24272C19.8948 2.57289 26.1311 0 32.7636 0C39.3961 0 45.6334 2.57289 50.3238 7.24376C52.3854 9.29686 54.0498 11.6547 55.2698 14.2506C56.4374 16.7337 57.1732 19.3828 57.4604 22.1279C59.5346 22.3753 61.4506 23.346 62.8854 24.8856C64.4105 26.5212 65.25 28.6473 65.25 30.8747C65.25 35.7314 61.2818 39.6831 56.4049 39.6831C55.7604 39.6831 55.2363 39.1612 55.2363 38.5193V23.7207C54.9879 18.1272 52.6569 12.8603 48.6709 8.89083C44.4218 4.65939 38.7725 2.32969 32.7647 2.32969C26.7569 2.32969 21.1065 4.66043 16.8585 8.89083C12.6094 13.1223 10.27 18.7482 10.27 24.7321C10.27 24.7666 10.2679 24.8 10.2648 24.8365V38.4055C10.2679 38.442 10.27 38.4765 10.27 38.5099C10.27 42.8415 11.9386 46.9477 14.9687 50.0717C17.9181 53.1122 21.8443 54.9023 26.0536 55.1351C26.8397 53.0997 29.5333 51.7042 32.7647 51.7042C36.6574 51.7042 39.7074 53.7458 39.7074 56.3521C39.7074 58.9584 36.6574 61 32.7647 61C29.4579 61 26.7443 59.5606 26.0138 57.4637C21.2951 57.2278 16.8668 55.2697 13.5139 51.9307C10.1924 48.623 8.23036 44.26 7.96413 39.61C5.90878 39.347 4.01379 38.3732 2.59464 36.8409C1.0822 35.2084 0.25 33.0896 0.25 30.8737C0.25 26.4126 3.65638 22.6362 8.06895 22.1237H8.0679ZM2.5873 30.8737C2.5873 34.0332 4.85123 36.6969 7.9264 37.2501V24.4973C4.85228 25.0505 2.5873 27.7131 2.5873 30.8737ZM57.5736 24.9597V37.249C60.6477 36.6958 62.9127 34.0332 62.9127 30.8726C62.9127 27.7121 60.6582 25.063 57.5967 24.5004C57.5967 24.5797 57.5977 24.6559 57.5977 24.73C57.5977 24.8041 57.5893 24.8824 57.5746 24.9586L57.5736 24.9597ZM28.1592 56.3511C28.1592 57.0368 28.8657 57.565 29.287 57.8196C30.1978 58.3687 31.4325 58.6714 32.7636 58.6714C34.0947 58.6714 35.3305 58.3687 36.2402 57.8196C36.6616 57.566 37.368 57.0368 37.368 56.3511C37.368 55.6653 36.6616 55.1371 36.2402 54.8835C35.3294 54.3345 34.0947 54.0318 32.7636 54.0318C31.4325 54.0318 30.1968 54.3345 29.287 54.8835C28.8657 55.1382 28.1592 55.6663 28.1592 56.3511Z" fill="#005D98"/>
</g>
<defs>
<clipPath id="clip0_9646_48810">
<rect width="65" height="61" fill="white" transform="matrix(-1 0 0 1 65.25 0)"/>
</clipPath>
</defs>
</svg>
