<svg width="42" height="53" viewBox="0 0 42 53" fill="none" xmlns="http://www.w3.org/2000/svg">
<g clip-path="url(#clip0_9646_48781)">
<path d="M37.4849 3.87403H32.911V3.3193C32.911 1.48862 31.4224 0 29.5917 0H12.574C10.7433 0 9.25473 1.48862 9.25473 3.3193V3.87403H4.51605C2.53865 3.87403 0.929688 5.48299 0.929688 7.46039V49.4128C0.929688 51.3902 2.53865 52.9992 4.51605 52.9992H37.484C39.4614 52.9992 41.0704 51.3902 41.0704 49.4128V7.46039C41.0704 5.48299 39.4614 3.87403 37.484 3.87403H37.4849ZM10.7384 3.3193C10.7384 2.30711 11.5618 1.48367 12.574 1.48367H29.5917C30.6039 1.48367 31.4274 2.30711 31.4274 3.3193V6.18196H10.7384V3.3193ZM39.5875 49.4136C39.5875 50.5734 38.6438 51.5163 37.4849 51.5163H4.51605C3.35631 51.5163 2.41336 50.5725 2.41336 49.4136V7.46039C2.41336 6.30065 3.35714 5.3577 4.51605 5.3577H9.25473V7.66563H32.911V5.3577H37.4849C38.6446 5.3577 39.5875 6.30148 39.5875 7.46039V49.4128V49.4136Z" fill="#005D98"/>
<path d="M34.8205 16.4028H15.7801C15.4611 16.4028 15.2031 16.6608 15.2031 16.9798C15.2031 17.2988 15.4611 17.5568 15.7801 17.5568H34.8205C35.1395 17.5568 35.3975 17.2988 35.3975 16.9798C35.3975 16.6608 35.1395 16.4028 34.8205 16.4028Z" fill="#005D98"/>
<path d="M12.6124 13.7635C12.3552 13.6061 12.0181 13.6852 11.8607 13.9424L9.37388 17.9771L8.04105 17.0391C7.79459 16.8652 7.45335 16.9245 7.27943 17.1718C7.10551 17.4191 7.16485 17.7595 7.41213 17.9334L9.69534 19.5407L12.7921 14.5169C12.9503 14.2597 12.8704 13.9234 12.614 13.7643L12.6124 13.7635Z" fill="#005D98"/>
<path d="M34.8205 25.9644H15.7801C15.4611 25.9644 15.2031 26.2223 15.2031 26.5413C15.2031 26.8603 15.4611 27.1183 15.7801 27.1183H34.8205C35.1395 27.1183 35.3975 26.8603 35.3975 26.5413C35.3975 26.2223 35.1395 25.9644 34.8205 25.9644Z" fill="#005D98"/>
<path d="M12.6124 23.325C12.3552 23.1676 12.0181 23.2467 11.8607 23.5039L9.37388 27.5386L8.04105 26.6006C7.79459 26.4267 7.45335 26.4861 7.27943 26.7333C7.10551 26.9806 7.16485 27.321 7.41213 27.495L9.69534 29.1023L12.7921 24.0784C12.9503 23.8212 12.8704 23.4849 12.614 23.3258L12.6124 23.325Z" fill="#005D98"/>
<path d="M34.8205 35.5259H15.7801C15.4611 35.5259 15.2031 35.7839 15.2031 36.1029C15.2031 36.4219 15.4611 36.6798 15.7801 36.6798H34.8205C35.1395 36.6798 35.3975 36.4219 35.3975 36.1029C35.3975 35.7839 35.1395 35.5259 34.8205 35.5259Z" fill="#005D98"/>
<path d="M12.6124 32.8865C12.3552 32.7291 12.0181 32.8082 11.8607 33.0654L9.37388 37.1002L8.04105 36.1622C7.79459 35.9882 7.45335 36.0476 7.27943 36.2949C7.10551 36.5421 7.16485 36.8826 7.41213 37.0565L9.69534 38.6638L12.7921 33.6399C12.9503 33.3827 12.8704 33.0465 12.614 32.8874L12.6124 32.8865Z" fill="#005D98"/>
</g>
<defs>
<clipPath id="clip0_9646_48781">
<rect width="40.1415" height="53" fill="white" transform="translate(0.929688)"/>
</clipPath>
</defs>
</svg>
