<svg width="126" height="90" viewBox="0 0 126 90" fill="none" xmlns="http://www.w3.org/2000/svg">
<g clip-path="url(#clip0_5495_23505)">
<path d="M33.623 23.2437V55.8183H71.8012V12.8198H62.0068V53.2124H57.6102V18.0318H47.8158V53.2124H43.4191V23.2437H33.6247H33.623ZM64.0059 14.8247H69.8022V53.2124H64.0059V14.8247ZM49.8148 20.0366H55.6111V53.2124H49.8148V20.0366ZM41.4201 53.2124H35.6238V25.2486H41.4201V53.2124Z" fill="#005D98"/>
<path d="M83.0652 66.6604C82.2649 65.7302 81.5633 64.7379 80.9623 63.6985H17.5379V63.6381H6.12947C4.41168 63.6381 3.01367 62.236 3.01367 60.5132V6.1472C3.01367 4.42444 4.41168 3.02239 6.12947 3.02239H99.349C101.067 3.02239 102.465 4.42444 102.465 6.1472V34.5325C103.495 34.7726 104.502 35.095 105.479 35.4963V6.1472C105.479 2.75709 102.729 0 99.349 0H6.12947C2.74914 0 0 2.75709 0 6.1472V60.5132C0 63.9034 2.74914 66.6604 6.12947 66.6604H34.7409V86.9776H25.8004V90H79.6781V86.9776H70.7376V66.6604H83.0652ZM67.7239 86.9776H37.7546V66.6604H67.7239V86.9776Z" fill="#005D98"/>
<path d="M125.265 73.4072C125.19 72.6919 124.84 72.0488 124.283 71.5972L114.219 63.4468C114.081 63.336 113.934 63.2386 113.78 63.158C115.913 59.558 116.754 55.335 116.152 51.1389C115.491 46.5197 113.137 42.3623 109.524 39.4356C101.648 33.0567 90.0641 34.2925 83.7036 42.191C77.3431 50.0895 78.5753 61.7072 86.4511 68.0861C90.0641 71.0128 94.6114 72.4451 99.2542 72.1227C103.47 71.8289 107.409 70.1145 110.47 67.2667C110.582 67.4011 110.708 67.5253 110.845 67.6361L120.909 75.7865C121.405 76.1878 122.001 76.3826 122.593 76.3826C123.377 76.3826 124.155 76.0401 124.685 75.3835C125.135 74.8244 125.341 74.1225 125.265 73.4072ZM109.676 63.2285C107.16 66.355 103.574 68.3111 99.5773 68.736C95.5808 69.1641 91.6647 68.0072 88.5489 65.4835C85.4314 62.9598 83.4809 59.3632 83.0573 55.3552C82.6321 51.3488 83.784 47.4214 86.3004 44.2949C89.2655 40.6126 93.6152 38.7001 98.0018 38.7001C101.317 38.7001 104.654 39.7932 107.426 42.0382C113.87 47.2585 114.88 56.7623 109.675 63.2268L109.676 63.2285Z" fill="#005D98"/>
</g>
<defs>
<clipPath id="clip0_5495_23505">
<rect width="125.28" height="90" fill="white"/>
</clipPath>
</defs>
</svg>
