<svg width="58" height="54" viewBox="0 0 58 54" fill="none" xmlns="http://www.w3.org/2000/svg">
<g clip-path="url(#clip0_9646_48793)">
<path d="M28.6975 41.3637C25.3534 41.3637 22.6328 38.6431 22.6328 35.3C22.6328 31.957 25.3534 29.2354 28.6975 29.2354C32.0416 29.2354 34.7612 31.956 34.7612 35.3C34.7612 38.6441 32.0406 41.3637 28.6975 41.3637ZM28.6975 30.5318C26.0686 30.5318 23.9292 32.6712 23.9292 35.3C23.9292 37.9289 26.0686 40.0683 28.6975 40.0683C31.3264 40.0683 33.4658 37.9289 33.4658 35.3C33.4658 32.6712 31.3264 30.5318 28.6975 30.5318Z" fill="#005D98"/>
<path d="M28.6927 41.5699C25.2352 41.5699 22.4219 38.7575 22.4219 35.3001C22.4219 31.8427 25.2352 29.0293 28.6927 29.0293C32.1501 29.0293 34.9624 31.8416 34.9624 35.3001C34.9624 38.7586 32.1501 41.5699 28.6927 41.5699ZM28.6927 29.4415C25.463 29.4415 22.8341 32.0694 22.8341 35.3001C22.8341 38.5308 25.462 41.1577 28.6927 41.1577C31.9234 41.1577 34.5502 38.5298 34.5502 35.3001C34.5502 32.0704 31.9224 29.4415 28.6927 29.4415ZM28.6927 40.2745C25.9494 40.2745 23.7183 38.0434 23.7183 35.3001C23.7183 32.5568 25.9494 30.3257 28.6927 30.3257C31.436 30.3257 33.6671 32.5568 33.6671 35.3001C33.6671 38.0434 31.436 40.2745 28.6927 40.2745ZM28.6927 30.7379C26.1771 30.7379 24.1305 32.7846 24.1305 35.3001C24.1305 37.8156 26.1771 39.8623 28.6927 39.8623C31.2082 39.8623 33.2549 37.8156 33.2549 35.3001C33.2549 32.7846 31.2082 30.7379 28.6927 30.7379Z" fill="#005D98"/>
<path d="M37.5977 53.7938H19.7891V48.8699C19.7891 45.5258 22.5097 42.8052 25.8538 42.8052H31.533C34.8771 42.8052 37.5977 45.5258 37.5977 48.8699V53.7938ZM21.0855 52.4974H36.3013V48.8688C36.3013 46.2399 34.1619 44.1006 31.533 44.1006H25.8538C23.2249 44.1006 21.0855 46.2399 21.0855 48.8688V52.4974Z" fill="#005D98"/>
<path d="M37.8068 53.9999H19.5859V48.8699C19.5859 45.4125 22.3993 42.5991 25.8567 42.5991H31.536C34.9935 42.5991 37.8068 45.4114 37.8068 48.8699V53.9999ZM19.9982 53.5877H37.3946V48.8699C37.3946 45.6402 34.7667 43.0113 31.536 43.0113H25.8567C22.627 43.0113 19.9982 45.6392 19.9982 48.8699V53.5877ZM36.5104 52.7035H20.8823V48.8689C20.8823 46.1256 23.1135 43.8945 25.8567 43.8945H31.536C34.2793 43.8945 36.5104 46.1256 36.5104 48.8689V52.7035ZM21.2946 52.2913H36.0982V48.8689C36.0982 46.3534 34.0515 44.3067 31.536 44.3067H25.8567C23.3412 44.3067 21.2946 46.3534 21.2946 48.8689V52.2913Z" fill="#005D98"/>
<path d="M48.0022 41.3637C44.6581 41.3637 41.9375 38.6431 41.9375 35.3C41.9375 31.957 44.6581 29.2354 48.0022 29.2354C51.3463 29.2354 54.0659 31.956 54.0659 35.3C54.0659 38.6441 51.3452 41.3637 48.0022 41.3637ZM48.0022 30.5318C45.3733 30.5318 43.2339 32.6712 43.2339 35.3C43.2339 37.9289 45.3733 40.0683 48.0022 40.0683C50.6311 40.0683 52.7705 37.9289 52.7705 35.3C52.7705 32.6712 50.6311 30.5318 48.0022 30.5318Z" fill="#005D98"/>
<path d="M48.0052 41.5699C44.5477 41.5699 41.7344 38.7575 41.7344 35.3001C41.7344 31.8427 44.5467 29.0293 48.0052 29.0293C51.4636 29.0293 54.2749 31.8416 54.2749 35.3001C54.2749 38.7586 51.4626 41.5699 48.0052 41.5699ZM48.0052 29.4415C44.7755 29.4415 42.1466 32.0694 42.1466 35.3001C42.1466 38.5308 44.7744 41.1577 48.0052 41.1577C51.2359 41.1577 53.8627 38.5298 53.8627 35.3001C53.8627 32.0704 51.2349 29.4415 48.0052 29.4415ZM48.0052 40.2745C45.2619 40.2745 43.0308 38.0434 43.0308 35.3001C43.0308 32.5568 45.2619 30.3257 48.0052 30.3257C50.7485 30.3257 52.9796 32.5568 52.9796 35.3001C52.9796 38.0434 50.7485 40.2745 48.0052 40.2745ZM48.0052 30.7379C45.4896 30.7379 43.443 32.7846 43.443 35.3001C43.443 37.8156 45.4896 39.8623 48.0052 39.8623C50.5207 39.8623 52.5674 37.8156 52.5674 35.3001C52.5674 32.7846 50.5207 30.7379 48.0052 30.7379Z" fill="#005D98"/>
<path d="M56.9102 53.7938H39.1016V48.8699C39.1016 45.5258 41.8222 42.8052 45.1663 42.8052H50.8455C54.1896 42.8052 56.9102 45.5258 56.9102 48.8699V53.7938ZM40.398 52.4974H55.6138V48.8688C55.6138 46.2399 53.4744 44.1006 50.8455 44.1006H45.1663C42.5374 44.1006 40.398 46.2399 40.398 48.8688V52.4974Z" fill="#005D98"/>
<path d="M57.1115 53.9999H38.8906V48.8699C38.8906 45.4125 41.704 42.5991 45.1614 42.5991H50.8407C54.2981 42.5991 57.1115 45.4114 57.1115 48.8699V53.9999ZM39.3039 53.5877H56.7003V48.8699C56.7003 45.6402 54.0725 43.0113 50.8417 43.0113H45.1625C41.9328 43.0113 39.3039 45.6392 39.3039 48.8699V53.5877ZM55.8161 52.7035H40.1881V48.8689C40.1881 46.1256 42.4192 43.8945 45.1625 43.8945H50.8417C53.585 43.8945 55.8161 46.1256 55.8161 48.8689V52.7035ZM40.5993 52.2913H55.4029V48.8689C55.4029 46.3534 53.3562 44.3067 50.8407 44.3067H45.1614C42.6459 44.3067 40.5993 46.3534 40.5993 48.8689V52.2913Z" fill="#005D98"/>
<path d="M7.98438 0.206055V3.63876C8.43678 3.75109 8.87063 3.9098 9.28079 4.10972V1.50247H49.7148V25.2831H22.2274C22.0203 25.7087 21.7142 26.0828 21.3246 26.3754L21.0526 26.5795H51.0092V0.206055H7.98438Z" fill="#005D98"/>
<path d="M51.2203 26.7846H20.4383L21.205 26.2096C21.5667 25.9375 21.8501 25.5954 22.0459 25.1924L22.1026 25.077H49.5117V1.70863H9.48988V4.43954L9.19308 4.29424C8.79323 4.09843 8.37072 3.94592 7.93789 3.83874L7.78125 3.79958V0H51.2193V26.7846H51.2203ZM21.6574 26.3724H50.8071V0.412214H8.19449V3.47908C8.49541 3.56153 8.79117 3.66458 9.07869 3.78824V1.29641H49.925V25.4892H22.3571C22.1768 25.8252 21.9429 26.121 21.6574 26.3734V26.3724Z" fill="#005D98"/>
<path d="M6.40063 16.0928C9.74472 16.0928 12.4643 13.3722 12.4643 10.0281C12.4643 6.68399 9.74369 3.96338 6.40063 3.96338C3.05758 3.96338 0.335938 6.68502 0.335938 10.0281C0.335938 13.3711 3.05655 16.0928 6.40063 16.0928ZM6.40063 5.25979C9.02952 5.25979 11.1689 7.39918 11.1689 10.0281C11.1689 12.657 9.02952 14.7964 6.40063 14.7964C3.77174 14.7964 1.63235 12.658 1.63235 10.0281C1.63235 7.39815 3.77174 5.25979 6.40063 5.25979Z" fill="#005D98"/>
<path d="M6.40361 16.2989C2.94617 16.2989 0.132812 13.4866 0.132812 10.0281C0.132812 6.56965 2.94617 3.75732 6.40361 3.75732C9.86106 3.75732 12.6734 6.56965 12.6734 10.0281C12.6734 13.4866 9.86106 16.2989 6.40361 16.2989ZM6.40361 4.17057C3.17392 4.17057 0.545026 6.79843 0.545026 10.0292C0.545026 13.2599 3.17289 15.8877 6.40361 15.8877C9.63434 15.8877 12.2612 13.2599 12.2612 10.0292C12.2612 6.79843 9.63331 4.17057 6.40361 4.17057ZM6.40361 15.0025C3.66033 15.0025 1.42922 12.7714 1.42922 10.0281C1.42922 7.28484 3.66033 5.05374 6.40361 5.05374C9.1469 5.05374 11.378 7.28484 11.378 10.0281C11.378 12.7714 9.1469 15.0025 6.40361 15.0025ZM6.40361 5.46595C3.88808 5.46595 1.84144 7.51259 1.84144 10.0281C1.84144 12.5437 3.88808 14.5903 6.40361 14.5903C8.91915 14.5903 10.9658 12.5437 10.9658 10.0281C10.9658 7.51259 8.91915 5.46595 6.40361 5.46595Z" fill="#005D98"/>
<path d="M27.4994 17.7841C27.2799 17.5017 26.8728 17.4512 26.5904 17.6707L21.0534 21.9794C20.7123 21.7135 20.3073 21.5393 19.8683 21.4765C19.2056 21.3816 18.5461 21.5517 18.0112 21.9536L15.5668 23.7879L11.928 19.4927C11.861 19.4051 11.7878 19.3216 11.7085 19.2423C10.9418 18.1715 9.70512 17.5347 8.3881 17.5347H4.42776C2.17604 17.5347 0.34375 19.367 0.34375 21.6187V53.794H12.4608V36.4285H12.4721V28.0399L13.3625 29.123C14.054 30.0278 15.3525 30.2082 16.2645 29.5249L21.0183 25.9613C21.5532 25.5594 21.9005 24.9731 21.9942 24.3104C22.0581 23.8642 22.0015 23.419 21.8355 23.013L27.386 18.694C27.6684 18.4745 27.7189 18.0675 27.4994 17.7851V17.7841ZM20.7112 24.127C20.6659 24.4465 20.4979 24.7299 20.2403 24.9236L15.4864 28.4872C15.1402 28.7469 14.6476 28.6768 14.3879 28.3316L11.1747 24.4228V35.1331H11.1633V52.4986H7.53482V36.2667C7.53482 35.6412 7.02573 35.1331 6.40123 35.1331C5.77673 35.1331 5.26764 35.6422 5.26764 36.2667V52.4986H1.63913V21.6187C1.63913 20.0811 2.8902 18.8311 4.42673 18.8311H8.38707C9.30115 18.8311 10.1575 19.2804 10.68 20.0337L10.7181 20.0883L10.7666 20.1347C10.8171 20.1821 10.8624 20.2336 10.9026 20.2872L15.3658 25.5584L18.7872 22.9903C19.0459 22.7966 19.3643 22.7152 19.6838 22.7605C20.0033 22.8058 20.2867 22.9738 20.4804 23.2315C20.6741 23.4901 20.7555 23.8086 20.7102 24.128L20.7112 24.127Z" fill="#005D98"/>
<path d="M12.6621 53.9999H0.132812V21.6184C0.132812 19.2534 2.05682 17.3283 4.42293 17.3283H8.38327C9.75697 17.3283 11.0565 17.993 11.8613 19.1081C11.9417 19.1895 12.018 19.2771 12.087 19.3667L15.5939 23.5064L17.8827 21.7885C18.4619 21.3536 19.1761 21.1712 19.8933 21.2722C20.3086 21.3309 20.7033 21.4855 21.0465 21.7205L26.4609 17.5076C26.8319 17.2181 27.3698 17.285 27.6594 17.6571C27.7996 17.8374 27.8614 18.061 27.8325 18.2877C27.8047 18.5145 27.6893 18.7164 27.509 18.8556L22.078 23.0808C22.2151 23.4816 22.2553 23.9134 22.1955 24.338C22.0935 25.0553 21.7184 25.689 21.1392 26.1239L16.3854 29.6875C15.3858 30.4367 13.9543 30.2389 13.1959 29.2464L12.6754 28.6127V36.6323H12.6641V53.9978L12.6621 53.9999ZM0.545026 53.5877H12.2498V36.2221H12.2612V27.4636L13.5174 28.9919C14.144 29.8122 15.3167 29.974 16.137 29.3598L20.8909 25.7962C21.3824 25.4273 21.6998 24.8893 21.7864 24.2813C21.8441 23.8763 21.7936 23.4652 21.6401 23.0911L21.5813 22.9468L27.2554 18.532C27.3482 18.4598 27.408 18.3547 27.4224 18.2383C27.4368 18.1208 27.4049 18.0054 27.3327 17.9126C27.1833 17.7199 26.9051 17.6859 26.7124 17.8353L21.0485 22.2419L20.9218 22.143C20.6075 21.8977 20.2313 21.739 19.8335 21.6823C19.2255 21.5958 18.6206 21.7514 18.129 22.1203L15.529 24.0711L11.7645 19.6274C11.6964 19.5398 11.6295 19.4615 11.5563 19.3894L11.5346 19.3636C10.8071 18.3485 9.62816 17.7426 8.38121 17.7426H4.42087C2.28251 17.7426 0.542965 19.4821 0.542965 21.6205V53.5897L0.545026 53.5877ZM11.3667 52.7035H7.32594V36.2654C7.32594 35.7543 6.90961 35.3379 6.39846 35.3379C5.88732 35.3379 5.47098 35.7543 5.47098 36.2654V52.7035H1.42922V21.6184C1.42922 19.9675 2.77201 18.6247 4.42293 18.6247H8.38327C9.36434 18.6247 10.2846 19.107 10.8452 19.916L10.871 19.9531L10.904 19.984C10.9617 20.0386 11.0132 20.0963 11.0596 20.1571L15.394 25.2758L18.6598 22.8242C18.9627 22.5974 19.3348 22.5006 19.7088 22.5552C20.0829 22.6088 20.4148 22.8046 20.6415 23.1065C20.8682 23.4085 20.964 23.7815 20.9104 24.1566C20.8569 24.5307 20.6611 24.8626 20.3591 25.0893L15.6053 28.6529C15.1683 28.9806 14.5459 28.8919 14.2182 28.456L11.3759 24.9986V35.34H11.3646V52.7055L11.3667 52.7035ZM7.73713 52.2913H10.9534V34.9257H10.9648V23.8464L14.5428 28.2005C14.7396 28.4622 15.1034 28.5137 15.359 28.3221L20.1128 24.7585C20.3272 24.5977 20.4653 24.3638 20.5034 24.0979C20.5415 23.832 20.4735 23.5682 20.3127 23.3539C20.152 23.1395 19.917 23.0004 19.6511 22.9633C19.3853 22.9241 19.1214 22.9932 18.9071 23.1539L15.3301 25.8385L10.7339 20.4096C10.7009 20.3653 10.6628 20.3231 10.6206 20.2829L10.5443 20.2045L10.5062 20.1499C10.0229 19.4523 9.22934 19.0359 8.38327 19.0359H4.42293C2.99976 19.0359 1.84144 20.1942 1.84144 21.6174V52.2913H5.05774V36.2654C5.05774 35.5265 5.65854 34.9257 6.39743 34.9257C7.13632 34.9257 7.73713 35.5265 7.73713 36.2654V52.2913Z" fill="#005D98"/>
</g>
<defs>
<clipPath id="clip0_9646_48793">
<rect width="56.9803" height="54" fill="white" transform="translate(0.132812)"/>
</clipPath>
</defs>
</svg>
