<svg width="72" height="117" viewBox="0 0 72 117" fill="none" xmlns="http://www.w3.org/2000/svg">
<g clip-path="url(#clip0_5495_23509)">
<path d="M0 35.9622V112.088V116.433V117H72V116.433V112.088V55.6066H53.5288V112.088H45.2366V45.7844H26.7655V112.088H18.4733V35.9622H0.00210354H0ZM41.465 112.088H30.5329V49.5623H41.465V112.088ZM68.2283 112.088H57.2962V59.3845H68.2283V112.088ZM3.76744 112.088V39.7401H14.6995V112.088H3.76955H3.76744Z" fill="#005D98"/>
<path d="M58.3964 42.4491C48.4929 41.0365 39.3656 38.0049 31.2712 33.4385C24.786 29.7786 18.9487 25.1342 13.9212 19.6297C5.34508 10.2417 2.12666 1.67814 1.99414 1.31764L5.54492 0.00210822L3.76953 0.659874L5.54492 0C5.57647 0.0822207 8.70023 8.34013 16.8283 17.1926C21.5823 22.3725 27.0999 26.7428 33.2254 30.1855C40.8844 34.4905 49.5321 37.3514 58.9307 38.6922L58.3985 42.4491H58.3964Z" fill="#005D98"/>
<path d="M71.9992 41.4876L52.6172 47.6984L57.6762 40.3597L53.8225 32.321L71.9992 41.4876Z" fill="#005D98"/>
</g>
<defs>
<clipPath id="clip0_5495_23509">
<rect width="72" height="117" fill="white"/>
</clipPath>
</defs>
</svg>
