<svg width="47" height="53" viewBox="0 0 47 53" fill="none" xmlns="http://www.w3.org/2000/svg">
<g clip-path="url(#clip0_12237_20378)">
<path d="M35.503 0H3.77149C1.89863 0 0.375 1.47799 0.375 3.29474V45.6993C0.375 47.516 1.89863 48.994 3.77149 48.994H39.1305C41.0033 48.994 42.527 47.516 42.527 45.6993V6.80258L35.503 0ZM39.1305 47.354H3.77149C2.83084 47.354 2.0648 46.6118 2.0648 45.6984V3.29474C2.0648 2.38227 2.8299 1.63918 3.77149 1.63918H34.415L34.4535 7.74055H40.8372V45.6984C40.8372 46.6109 40.0721 47.354 39.1305 47.354Z" fill="#005D98"/>
<path d="M19.104 14.2974H7.22656V15.9365H19.104V14.2974Z" fill="#005D98"/>
<path d="M33.3245 19.0327H7.22656V20.6719H33.3245V19.0327Z" fill="#005D98"/>
<path d="M33.3245 23.7681H7.22656V25.4072H33.3245V23.7681Z" fill="#005D98"/>
<path d="M33.3245 28.5034H7.22656V30.1426H33.3245V28.5034Z" fill="#005D98"/>
<path d="M33.3245 33.2388H7.22656V34.8779H33.3245V33.2388Z" fill="#005D98"/>
<path d="M35.503 0H3.77149C1.89863 0 0.375 1.47799 0.375 3.29474V45.6993C0.375 47.516 1.89863 48.994 3.77149 48.994H39.1305C41.0033 48.994 42.527 47.516 42.527 45.6993V6.80258L35.503 0ZM39.1305 47.354H3.77149C2.83084 47.354 2.0648 46.6118 2.0648 45.6984V3.29474C2.0648 2.38227 2.8299 1.63918 3.77149 1.63918H34.415L34.4535 7.74055H40.8372V45.6984C40.8372 46.6109 40.0721 47.354 39.1305 47.354Z" fill="#005D98"/>
<path d="M44.6868 9.56201V49.7054C44.6868 50.6179 43.9217 51.361 42.9802 51.361H7.62211C6.68709 51.361 5.92575 50.627 5.91636 49.7218H4.22656C4.23595 51.5313 5.75489 53.0002 7.62211 53.0002H42.9811C44.854 53.0002 46.3776 51.5222 46.3776 49.7054V9.56201H44.6878H44.6868Z" fill="#005D98"/>
</g>
<defs>
<clipPath id="clip0_12237_20378">
<rect width="46" height="53" fill="white" transform="translate(0.375)"/>
</clipPath>
</defs>
</svg>
