<svg width="109" height="59" viewBox="0 0 109 59" fill="none" xmlns="http://www.w3.org/2000/svg">
<g clip-path="url(#clip0_5495_23508)">
<path d="M104.716 33.7072C102.06 27.347 98.2896 21.6072 93.5111 16.6499C93.3552 16.4866 93.1961 16.3254 93.038 16.1643C92.7361 15.8585 92.4189 15.545 92.0941 15.2315C87.3068 10.6077 81.7958 6.943 75.7158 4.33799C68.9948 1.45924 61.8575 0 54.5 0C47.1425 0 40.0052 1.45924 33.2853 4.33799C27.2042 6.943 21.6932 10.6077 16.9059 15.2315C16.5811 15.545 16.2639 15.8596 15.962 16.1643C15.8039 16.3254 15.6448 16.4866 15.49 16.6477C10.7103 21.6061 6.93894 27.3448 4.2837 33.7061C1.44098 40.5122 0 47.74 0 55.1907V57.012H49.8871C49.2625 55.8663 49.0217 54.598 49.1285 53.3694H3.62752C3.84225 47.0534 5.17641 40.9206 7.5973 35.1267C9.96805 29.4498 13.2893 24.3027 17.4749 19.8146L49.365 52.1089C49.7105 50.9212 50.3951 49.8306 51.3815 49.0005L20.0331 17.2559C24.3539 13.2237 29.2796 10.0094 34.6871 7.69359C40.9589 5.0058 47.6254 3.64259 54.5 3.64259C61.3746 3.64259 68.04 5.0058 74.3129 7.69359C79.7204 10.0083 84.6461 13.2237 88.9669 17.2559L61.1882 45.3867L71.0277 40.5729L91.5262 19.8146C95.7118 24.3016 99.033 29.4498 101.404 35.1267C103.825 40.9206 105.159 47.0534 105.374 53.3694H64.1421L61.5479 55.5086C61.4139 56.0363 61.2144 56.5407 60.9572 57.012H109.001V55.1907C109.001 47.74 107.56 40.5122 104.717 33.7072H104.716Z" fill="#005D98"/>
<path d="M60.3651 54.7746L80.6892 38.0132L80.8647 37.9006L80.8516 37.8796L80.5432 37.3884L80.5301 37.3674L80.3546 37.48L56.7528 49.0259C55.435 48.6595 53.9744 48.8361 52.7307 49.6374C50.3948 51.143 49.706 54.2812 51.1927 56.6467C52.6795 59.0121 55.7784 59.7097 58.1142 58.2041C59.3579 57.4028 60.1351 56.1378 60.3651 54.7735V54.7746Z" fill="#005D98"/>
</g>
<defs>
<clipPath id="clip0_5495_23508">
<rect width="109" height="59" fill="white"/>
</clipPath>
</defs>
</svg>
