<svg width="91" height="90" viewBox="0 0 91 90" fill="none" xmlns="http://www.w3.org/2000/svg">
<g clip-path="url(#clip0_5495_23507)">
<path d="M88.4397 43.2475C87.0927 43.1779 83.5544 42.8489 79.7963 41.2782C75.1988 39.3548 71.9135 36.2847 70.0368 32.1564C69.719 31.4541 69.2052 30.9005 68.576 30.5431V17.2028L67.561 16.1873L65.1088 13.7341L54.8465 3.46872L52.3944 1.01547L51.3794 0H0V90H68.5776V83.9056C70.7925 82.9076 75.5387 80.3689 80.1189 75.3026C83.1876 71.9067 85.635 67.9634 87.3915 63.5852C89.5337 58.2453 90.6562 52.2206 90.7274 45.6801C90.7416 44.3768 89.7329 43.3091 88.4413 43.2475H88.4397ZM65.1104 86.5297H3.46714V3.46872H48.9289V19.6576H65.1104V30.5446C65.1104 30.5446 65.1041 30.5478 65.1009 30.551C65.0646 30.5715 65.0298 30.5937 64.9934 30.6142C64.9729 30.6285 64.9492 30.6427 64.9254 30.6569C64.8717 30.6933 64.8195 30.7297 64.7673 30.7661C64.7515 30.7772 64.7373 30.7914 64.7199 30.8025C64.6646 30.8452 64.6077 30.8895 64.5555 30.9353C64.5523 30.9385 64.5492 30.9417 64.5476 30.9432C64.4859 30.9954 64.4274 31.0508 64.3705 31.1093C64.3673 31.1125 64.3626 31.1172 64.3563 31.1236C64.3025 31.1773 64.2488 31.2359 64.1982 31.2944C64.1982 31.2944 64.1966 31.296 64.195 31.2975C64.1413 31.3592 64.0907 31.4241 64.0417 31.4905C63.9911 31.5585 63.9436 31.6281 63.8978 31.7009C63.8519 31.7721 63.8092 31.8448 63.7681 31.9207C63.727 31.9967 63.6891 32.0742 63.6527 32.1533C61.7745 36.2847 58.4908 39.3548 53.8916 41.2782C50.1336 42.8489 46.5953 43.1779 45.2546 43.2475C43.9566 43.3091 42.9495 44.3768 42.9622 45.6801C43.0333 52.2206 44.1558 58.2453 46.2981 63.5852C48.053 67.9634 50.502 71.9067 53.5707 75.3026C53.8236 75.5794 54.0734 75.8515 54.328 76.1156C54.407 76.1979 54.4861 76.2817 54.5667 76.3624C54.8149 76.6186 55.0631 76.8654 55.3129 77.109C55.4457 77.2355 55.577 77.3636 55.7098 77.487C55.8568 77.6246 56.0007 77.7591 56.1446 77.8919C56.2742 78.009 56.4023 78.1244 56.5303 78.2383C56.7137 78.3997 56.8955 78.5594 57.0773 78.7144C57.1896 78.8109 57.3003 78.9058 57.4125 78.9975C57.5295 79.0972 57.6481 79.1937 57.7651 79.2886C57.792 79.3091 57.8172 79.3313 57.8441 79.3518C57.9769 79.4594 58.1097 79.5654 58.241 79.6698C58.9255 80.2076 59.5896 80.6916 60.2251 81.1265C60.3279 81.1961 60.4275 81.2657 60.5271 81.3306C60.5524 81.348 60.5777 81.3654 60.6014 81.3812C60.7152 81.4587 60.8291 81.5315 60.9397 81.6042C61.0725 81.6912 61.2038 81.775 61.335 81.8573C61.4172 81.9111 61.501 81.9617 61.5816 82.0107C61.9231 82.2227 62.2504 82.4172 62.5666 82.596C62.6915 82.6687 62.8148 82.7383 62.9365 82.8063C62.9966 82.8395 63.0567 82.8712 63.1152 82.9044C63.4124 83.0689 63.6938 83.2144 63.9563 83.3489C64.0606 83.4011 64.165 83.4532 64.2646 83.5023C64.4638 83.6003 64.6519 83.6905 64.8274 83.7728C64.8717 83.7917 64.9144 83.8139 64.9571 83.8329C65.0092 83.8582 65.0614 83.8803 65.1104 83.904V86.5281V86.5297ZM66.8448 80.8766C66.7041 80.8149 66.5381 80.7422 66.3515 80.6552C66.3246 80.6441 66.2977 80.6299 66.2693 80.6172C65.395 80.206 64.0828 79.5227 62.5413 78.4977C62.4274 78.4202 62.312 78.3443 62.195 78.262C62.1302 78.2178 62.0638 78.1735 61.999 78.1276C61.648 77.884 61.2907 77.6246 60.9223 77.3446C60.8243 77.2719 60.7231 77.1944 60.6235 77.1169C60.3295 76.8875 60.0275 76.6487 59.7239 76.3956C59.6212 76.3102 59.52 76.2248 59.4156 76.1362C59.3334 76.0666 59.2496 75.9939 59.1658 75.9211C59.0789 75.8483 58.9919 75.7708 58.9034 75.6917C58.8496 75.6459 58.7959 75.5968 58.7421 75.5494C58.7074 75.5193 58.6742 75.4877 58.6394 75.4576C58.4923 75.3264 58.3469 75.1919 58.1999 75.0527C58.1271 74.9847 58.0512 74.9151 57.9785 74.8439C57.8568 74.7285 57.7335 74.6114 57.6133 74.4896C57.5406 74.42 57.4694 74.3489 57.3951 74.2761C57.0742 73.955 56.7501 73.6197 56.4275 73.2701C56.3532 73.191 56.2789 73.1104 56.2062 73.0297C55.9849 72.7845 55.7635 72.5346 55.5438 72.2768C55.4679 72.1914 55.3967 72.106 55.324 72.019C54.6647 71.2329 54.0149 70.3866 53.3841 69.4772C53.2434 69.2747 53.1027 69.0691 52.9667 68.8603C52.8972 68.7559 52.8276 68.6499 52.7612 68.5455C52.6363 68.3525 52.5114 68.1564 52.3897 67.9571C51.9612 67.2675 51.5486 66.5462 51.1486 65.7917C51.0363 65.583 50.9288 65.371 50.8213 65.1575C50.6838 64.8838 50.5478 64.607 50.415 64.3223C50.3644 64.2163 50.3154 64.1088 50.2648 63.9981C50.2047 63.8715 50.1478 63.7418 50.0893 63.6121C50.0308 63.4824 49.9739 63.3527 49.9186 63.2214C49.7083 62.7359 49.5043 62.2392 49.3099 61.7315C49.2767 61.6445 49.2451 61.5606 49.2119 61.4736C49.1771 61.3787 49.1423 61.2854 49.1075 61.1905C49.0095 60.9248 48.913 60.6543 48.8198 60.3823C48.6601 59.9141 48.5051 59.4364 48.3597 58.9508C48.3218 58.8274 48.2838 58.7025 48.2474 58.5743C48.2142 58.4668 48.1842 58.3592 48.1526 58.2485C48.1194 58.1315 48.0878 58.0097 48.0546 57.8895C47.8901 57.2884 47.7368 56.6731 47.5961 56.0452C47.566 55.9123 47.536 55.7794 47.5075 55.645C47.3937 55.1183 47.2878 54.5837 47.1913 54.038C47.1676 53.9051 47.1455 53.7722 47.1218 53.6378C47.1186 53.6141 47.1139 53.5919 47.1107 53.5682C47.0854 53.4179 47.0601 53.2677 47.038 53.1158C47.0111 52.9466 46.9842 52.7773 46.9605 52.6065C46.94 52.4752 46.9226 52.3439 46.9052 52.2111C46.8862 52.0782 46.8688 51.9438 46.8514 51.8062C46.7992 51.4107 46.7534 51.0105 46.7107 50.604C46.6917 50.4221 46.6743 50.2402 46.657 50.0552C46.6396 49.8717 46.6238 49.6866 46.6095 49.5016C46.5321 48.5731 46.4799 47.6193 46.4514 46.6371C48.3739 46.4584 51.7177 45.9459 55.2323 44.4765C60.6631 42.2067 64.5602 38.5434 66.8132 33.5863C66.8211 33.5705 66.8242 33.5626 66.8242 33.5626C66.8258 33.5626 66.8337 33.5594 66.8479 33.5594C66.859 33.5594 66.8669 33.561 66.8669 33.561C66.8685 33.5626 66.8748 33.5705 66.8843 33.5895C69.1356 38.5418 73.0328 42.2067 78.4636 44.4765C81.9734 45.9443 85.3172 46.4584 87.2444 46.6371C86.5441 71.1728 70.1522 79.4547 66.8479 80.8782L66.8448 80.8766Z" fill="#005D98"/>
<path d="M66.3458 69.2303L58.3981 61.7551L56.0234 64.2827L67.3387 74.9261L79.3669 51.2794L76.2777 49.7056L66.3458 69.2303Z" fill="#005D98"/>
<path d="M24.2423 29.6921H29.7079V35.1601C29.7079 35.4622 29.9529 35.7074 30.2549 35.7074H38.3227C38.6247 35.7074 38.8698 35.4622 38.8698 35.1601V29.6921H44.3353C44.6373 29.6921 44.8823 29.4469 44.8823 29.1448V21.0733C44.8823 20.7712 44.6373 20.526 44.3353 20.526H38.8698V15.058C38.8698 14.7559 38.6247 14.5107 38.3227 14.5107H30.2549C29.9529 14.5107 29.7079 14.7559 29.7079 15.058V20.526H24.2423C23.9404 20.526 23.6953 20.7712 23.6953 21.0733V29.1448C23.6953 29.4469 23.9404 29.6921 24.2423 29.6921Z" fill="#005D98"/>
<path d="M39.0796 43.6509H10.9805V46.1563H39.0796V43.6509Z" fill="#005D98"/>
<path d="M40.4535 53.8655H10.9805V56.3709H40.4535V53.8655Z" fill="#005D98"/>
<path d="M41.9934 64.0786H10.9805V66.5841H41.9934V64.0786Z" fill="#005D98"/>
</g>
<defs>
<clipPath id="clip0_5495_23507">
<rect width="90.7258" height="90" fill="white"/>
</clipPath>
</defs>
</svg>
